<mxfile host="app.diagrams.net" agent="Mozilla/5.0 (X11; Ubuntu; Linux x86_64; rv:135.0) Gecko/20100101 Firefox/135.0" version="26.0.11" pages="7">
  <diagram name="lifecycle-path-diverged" id="Frb4N8T29HTeV_W6xcO8">
    <mxGraphModel dx="1392" dy="791" grid="1" gridSize="10" guides="1" tooltips="1" connect="1" arrows="1" fold="1" page="1" pageScale="1" pageWidth="1600" pageHeight="900" math="0" shadow="0">
      <root>
        <mxCell id="0" />
        <mxCell id="1" parent="0" />
        <mxCell id="19hFHeFRPm9KwZNYlsER-1" value="Lib" style="ellipse;whiteSpace=wrap;html=1;strokeWidth=3;strokeColor=#025D8C;fontSize=16;fontColor=#025D8C;labelBackgroundColor=none;" parent="1" vertex="1">
          <mxGeometry x="40" y="40" width="80" height="80" as="geometry" />
        </mxCell>
        <mxCell id="19hFHeFRPm9KwZNYlsER-2" value="&lt;div&gt;Web&lt;/div&gt;&lt;div&gt;Dev&lt;br&gt;&lt;/div&gt;" style="ellipse;whiteSpace=wrap;html=1;strokeWidth=3;strokeColor=#025D8C;fontSize=16;fontColor=#025D8C;labelBackgroundColor=none;" parent="1" vertex="1">
          <mxGeometry x="200" y="40" width="80" height="80" as="geometry" />
        </mxCell>
        <mxCell id="19hFHeFRPm9KwZNYlsER-3" value="&lt;div&gt;Web&lt;/div&gt;&lt;div&gt;QA&lt;br&gt;&lt;/div&gt;" style="ellipse;whiteSpace=wrap;html=1;strokeWidth=3;strokeColor=#025D8C;fontSize=16;fontColor=#025D8C;labelBackgroundColor=none;" parent="1" vertex="1">
          <mxGeometry x="320" y="40" width="80" height="80" as="geometry" />
        </mxCell>
        <mxCell id="19hFHeFRPm9KwZNYlsER-4" value="&lt;div&gt;Web&lt;/div&gt;&lt;div&gt;UAT&lt;br&gt;&lt;/div&gt;" style="ellipse;whiteSpace=wrap;html=1;strokeWidth=3;strokeColor=#025D8C;fontSize=16;fontColor=#025D8C;labelBackgroundColor=none;" parent="1" vertex="1">
          <mxGeometry x="440" y="40" width="80" height="80" as="geometry" />
        </mxCell>
        <mxCell id="19hFHeFRPm9KwZNYlsER-5" value="&lt;div&gt;Web&lt;/div&gt;&lt;div&gt;Prod&lt;br&gt;&lt;/div&gt;" style="ellipse;whiteSpace=wrap;html=1;strokeWidth=3;strokeColor=#025D8C;fontSize=16;fontColor=#025D8C;labelBackgroundColor=none;" parent="1" vertex="1">
          <mxGeometry x="560" y="40" width="80" height="80" as="geometry" />
        </mxCell>
        <mxCell id="19hFHeFRPm9KwZNYlsER-7" value="" style="endArrow=none;html=1;rounded=0;fontColor=#025D8C;strokeColor=#025D8C;strokeWidth=3;labelBackgroundColor=none;" parent="1" source="19hFHeFRPm9KwZNYlsER-4" target="19hFHeFRPm9KwZNYlsER-5" edge="1">
          <mxGeometry width="50" height="50" relative="1" as="geometry">
            <mxPoint x="650" y="450" as="sourcePoint" />
            <mxPoint x="700" y="400" as="targetPoint" />
          </mxGeometry>
        </mxCell>
        <mxCell id="19hFHeFRPm9KwZNYlsER-8" value="" style="endArrow=none;html=1;rounded=0;fontColor=#025D8C;strokeColor=#025D8C;strokeWidth=3;labelBackgroundColor=none;" parent="1" source="19hFHeFRPm9KwZNYlsER-3" target="19hFHeFRPm9KwZNYlsER-4" edge="1">
          <mxGeometry width="50" height="50" relative="1" as="geometry">
            <mxPoint x="650" y="450" as="sourcePoint" />
            <mxPoint x="700" y="400" as="targetPoint" />
          </mxGeometry>
        </mxCell>
        <mxCell id="19hFHeFRPm9KwZNYlsER-9" value="" style="endArrow=none;html=1;rounded=0;fontColor=#025D8C;strokeColor=#025D8C;strokeWidth=3;labelBackgroundColor=none;" parent="1" source="19hFHeFRPm9KwZNYlsER-2" target="19hFHeFRPm9KwZNYlsER-3" edge="1">
          <mxGeometry width="50" height="50" relative="1" as="geometry">
            <mxPoint x="650" y="450" as="sourcePoint" />
            <mxPoint x="700" y="400" as="targetPoint" />
          </mxGeometry>
        </mxCell>
        <mxCell id="19hFHeFRPm9KwZNYlsER-10" value="" style="endArrow=none;html=1;rounded=0;fontColor=#025D8C;strokeColor=#025D8C;strokeWidth=3;labelBackgroundColor=none;" parent="1" source="19hFHeFRPm9KwZNYlsER-1" target="19hFHeFRPm9KwZNYlsER-2" edge="1">
          <mxGeometry width="50" height="50" relative="1" as="geometry">
            <mxPoint x="650" y="450" as="sourcePoint" />
            <mxPoint x="700" y="400" as="targetPoint" />
          </mxGeometry>
        </mxCell>
        <mxCell id="19hFHeFRPm9KwZNYlsER-11" value="Lib" style="ellipse;whiteSpace=wrap;html=1;strokeWidth=3;strokeColor=#025D8C;fontSize=16;fontColor=#025D8C;labelBackgroundColor=none;" parent="1" vertex="1">
          <mxGeometry x="40" y="160" width="80" height="80" as="geometry" />
        </mxCell>
        <mxCell id="19hFHeFRPm9KwZNYlsER-12" value="Dev" style="ellipse;whiteSpace=wrap;html=1;strokeWidth=3;strokeColor=#025D8C;fontSize=16;fontColor=#025D8C;labelBackgroundColor=none;" parent="1" vertex="1">
          <mxGeometry x="200" y="160" width="80" height="80" as="geometry" />
        </mxCell>
        <mxCell id="19hFHeFRPm9KwZNYlsER-13" value="QA" style="ellipse;whiteSpace=wrap;html=1;strokeWidth=3;strokeColor=#025D8C;fontSize=16;fontColor=#025D8C;labelBackgroundColor=none;" parent="1" vertex="1">
          <mxGeometry x="320" y="160" width="80" height="80" as="geometry" />
        </mxCell>
        <mxCell id="19hFHeFRPm9KwZNYlsER-15" value="Prod" style="ellipse;whiteSpace=wrap;html=1;strokeWidth=3;strokeColor=#025D8C;fontSize=16;fontColor=#025D8C;labelBackgroundColor=none;" parent="1" vertex="1">
          <mxGeometry x="440" y="160" width="80" height="80" as="geometry" />
        </mxCell>
        <mxCell id="19hFHeFRPm9KwZNYlsER-17" value="" style="endArrow=none;html=1;rounded=0;fontColor=#025D8C;strokeColor=#025D8C;strokeWidth=3;labelBackgroundColor=none;" parent="1" source="19hFHeFRPm9KwZNYlsER-13" target="19hFHeFRPm9KwZNYlsER-15" edge="1">
          <mxGeometry width="50" height="50" relative="1" as="geometry">
            <mxPoint x="650" y="570" as="sourcePoint" />
            <mxPoint x="440" y="200" as="targetPoint" />
          </mxGeometry>
        </mxCell>
        <mxCell id="19hFHeFRPm9KwZNYlsER-18" value="" style="endArrow=none;html=1;rounded=0;fontColor=#025D8C;strokeColor=#025D8C;strokeWidth=3;labelBackgroundColor=none;" parent="1" source="19hFHeFRPm9KwZNYlsER-12" target="19hFHeFRPm9KwZNYlsER-13" edge="1">
          <mxGeometry width="50" height="50" relative="1" as="geometry">
            <mxPoint x="650" y="570" as="sourcePoint" />
            <mxPoint x="700" y="520" as="targetPoint" />
          </mxGeometry>
        </mxCell>
        <mxCell id="19hFHeFRPm9KwZNYlsER-19" value="" style="endArrow=none;html=1;rounded=0;fontColor=#025D8C;strokeColor=#025D8C;strokeWidth=3;labelBackgroundColor=none;" parent="1" source="19hFHeFRPm9KwZNYlsER-11" target="19hFHeFRPm9KwZNYlsER-12" edge="1">
          <mxGeometry width="50" height="50" relative="1" as="geometry">
            <mxPoint x="650" y="570" as="sourcePoint" />
            <mxPoint x="700" y="520" as="targetPoint" />
          </mxGeometry>
        </mxCell>
      </root>
    </mxGraphModel>
  </diagram>
  <diagram name="lifecycle-path-simple" id="gdtoU0vMmEQZ10QxMH5R">
    <mxGraphModel dx="1392" dy="791" grid="1" gridSize="10" guides="1" tooltips="1" connect="1" arrows="1" fold="1" page="1" pageScale="1" pageWidth="1600" pageHeight="900" math="0" shadow="0">
      <root>
        <mxCell id="95DPkaY2iW_w2ZIxAiyw-0" />
        <mxCell id="95DPkaY2iW_w2ZIxAiyw-1" parent="95DPkaY2iW_w2ZIxAiyw-0" />
        <mxCell id="95DPkaY2iW_w2ZIxAiyw-11" value="Lib" style="ellipse;whiteSpace=wrap;html=1;strokeWidth=3;strokeColor=#025D8C;fontSize=16;fontColor=#025D8C;labelBackgroundColor=none;" parent="95DPkaY2iW_w2ZIxAiyw-1" vertex="1">
          <mxGeometry x="40" y="40" width="80" height="80" as="geometry" />
        </mxCell>
        <mxCell id="95DPkaY2iW_w2ZIxAiyw-12" value="Dev" style="ellipse;whiteSpace=wrap;html=1;strokeWidth=3;strokeColor=#025D8C;fontSize=16;fontColor=#025D8C;labelBackgroundColor=none;" parent="95DPkaY2iW_w2ZIxAiyw-1" vertex="1">
          <mxGeometry x="200" y="40" width="80" height="80" as="geometry" />
        </mxCell>
        <mxCell id="95DPkaY2iW_w2ZIxAiyw-13" value="QA" style="ellipse;whiteSpace=wrap;html=1;strokeWidth=3;strokeColor=#025D8C;fontSize=16;fontColor=#025D8C;labelBackgroundColor=none;" parent="95DPkaY2iW_w2ZIxAiyw-1" vertex="1">
          <mxGeometry x="320" y="40" width="80" height="80" as="geometry" />
        </mxCell>
        <mxCell id="95DPkaY2iW_w2ZIxAiyw-14" value="Prod" style="ellipse;whiteSpace=wrap;html=1;strokeWidth=3;strokeColor=#025D8C;fontSize=16;fontColor=#025D8C;labelBackgroundColor=none;" parent="95DPkaY2iW_w2ZIxAiyw-1" vertex="1">
          <mxGeometry x="440" y="40" width="80" height="80" as="geometry" />
        </mxCell>
        <mxCell id="95DPkaY2iW_w2ZIxAiyw-15" value="" style="endArrow=none;html=1;rounded=0;fontColor=#025D8C;strokeColor=#025D8C;strokeWidth=3;labelBackgroundColor=none;" parent="95DPkaY2iW_w2ZIxAiyw-1" source="95DPkaY2iW_w2ZIxAiyw-13" target="95DPkaY2iW_w2ZIxAiyw-14" edge="1">
          <mxGeometry width="50" height="50" relative="1" as="geometry">
            <mxPoint x="650" y="450" as="sourcePoint" />
            <mxPoint x="440" y="80" as="targetPoint" />
          </mxGeometry>
        </mxCell>
        <mxCell id="95DPkaY2iW_w2ZIxAiyw-16" value="" style="endArrow=none;html=1;rounded=0;fontColor=#025D8C;strokeColor=#025D8C;strokeWidth=3;labelBackgroundColor=none;" parent="95DPkaY2iW_w2ZIxAiyw-1" source="95DPkaY2iW_w2ZIxAiyw-12" target="95DPkaY2iW_w2ZIxAiyw-13" edge="1">
          <mxGeometry width="50" height="50" relative="1" as="geometry">
            <mxPoint x="650" y="450" as="sourcePoint" />
            <mxPoint x="700" y="400" as="targetPoint" />
          </mxGeometry>
        </mxCell>
        <mxCell id="95DPkaY2iW_w2ZIxAiyw-17" value="" style="endArrow=none;html=1;rounded=0;fontColor=#025D8C;strokeColor=#025D8C;strokeWidth=3;labelBackgroundColor=none;" parent="95DPkaY2iW_w2ZIxAiyw-1" source="95DPkaY2iW_w2ZIxAiyw-11" target="95DPkaY2iW_w2ZIxAiyw-12" edge="1">
          <mxGeometry width="50" height="50" relative="1" as="geometry">
            <mxPoint x="650" y="450" as="sourcePoint" />
            <mxPoint x="700" y="400" as="targetPoint" />
          </mxGeometry>
        </mxCell>
      </root>
    </mxGraphModel>
  </diagram>
  <diagram name="lifecycle-path-basic" id="NtIdX8fPojPzozI9kTlu">
    <mxGraphModel dx="1392" dy="791" grid="1" gridSize="10" guides="1" tooltips="1" connect="1" arrows="1" fold="1" page="1" pageScale="1" pageWidth="1600" pageHeight="900" math="0" shadow="0">
      <root>
        <mxCell id="QEvUM9rJ-a1WV_d-30rW-0" />
        <mxCell id="QEvUM9rJ-a1WV_d-30rW-1" parent="QEvUM9rJ-a1WV_d-30rW-0" />
        <mxCell id="QEvUM9rJ-a1WV_d-30rW-2" value="Lib" style="ellipse;whiteSpace=wrap;html=1;strokeWidth=3;strokeColor=#025D8C;fontSize=16;fontColor=#025D8C;labelBackgroundColor=none;" parent="QEvUM9rJ-a1WV_d-30rW-1" vertex="1">
          <mxGeometry x="40" y="40" width="80" height="80" as="geometry" />
        </mxCell>
        <mxCell id="QEvUM9rJ-a1WV_d-30rW-3" value="Prod" style="ellipse;whiteSpace=wrap;html=1;strokeWidth=3;strokeColor=#025D8C;fontSize=16;fontColor=#025D8C;labelBackgroundColor=none;" parent="QEvUM9rJ-a1WV_d-30rW-1" vertex="1">
          <mxGeometry x="200" y="40" width="80" height="80" as="geometry" />
        </mxCell>
        <mxCell id="QEvUM9rJ-a1WV_d-30rW-8" value="" style="endArrow=none;html=1;rounded=0;fontColor=#025D8C;strokeColor=#025D8C;strokeWidth=3;labelBackgroundColor=none;" parent="QEvUM9rJ-a1WV_d-30rW-1" source="QEvUM9rJ-a1WV_d-30rW-2" target="QEvUM9rJ-a1WV_d-30rW-3" edge="1">
          <mxGeometry width="50" height="50" relative="1" as="geometry">
            <mxPoint x="650" y="450" as="sourcePoint" />
            <mxPoint x="700" y="400" as="targetPoint" />
          </mxGeometry>
        </mxCell>
      </root>
    </mxGraphModel>
  </diagram>
  <diagram id="vpeZb-QtcMfpUJWFF8EZ" name="host-group-structures">
    <mxGraphModel dx="1392" dy="791" grid="1" gridSize="10" guides="1" tooltips="1" connect="1" arrows="1" fold="1" page="1" pageScale="1" pageWidth="1600" pageHeight="900" math="0" shadow="0">
      <root>
        <mxCell id="0" />
        <mxCell id="1" parent="0" />
        <mxCell id="7O-oKPZNZdEKcaRh6BN5-1" value="dev-infra-git-el10" style="rounded=1;whiteSpace=wrap;html=1;fontColor=#025D8C;fontSize=16;strokeWidth=3;strokeColor=#025D8C;align=center;labelBackgroundColor=none;" parent="1" vertex="1">
          <mxGeometry x="220" y="120" width="140" height="40" as="geometry" />
        </mxCell>
        <mxCell id="7O-oKPZNZdEKcaRh6BN5-2" value="qa-infra-git-el10" style="rounded=1;whiteSpace=wrap;html=1;fontColor=#025D8C;fontSize=16;strokeWidth=3;strokeColor=#025D8C;align=center;labelBackgroundColor=none;" parent="1" vertex="1">
          <mxGeometry x="220" y="200" width="140" height="40" as="geometry" />
        </mxCell>
        <mxCell id="7O-oKPZNZdEKcaRh6BN5-3" value="prod-infra-git-el10" style="rounded=1;whiteSpace=wrap;html=1;fontColor=#025D8C;fontSize=16;strokeWidth=3;strokeColor=#025D8C;align=center;labelBackgroundColor=none;" parent="1" vertex="1">
          <mxGeometry x="220" y="280" width="140" height="40" as="geometry" />
        </mxCell>
        <mxCell id="7O-oKPZNZdEKcaRh6BN5-4" value="DEV" style="rounded=1;whiteSpace=wrap;html=1;fontColor=#025D8C;fontSize=16;strokeWidth=3;strokeColor=#025D8C;fontStyle=1;align=center;labelBackgroundColor=none;" parent="1" vertex="1">
          <mxGeometry x="500" y="120" width="140" height="40" as="geometry" />
        </mxCell>
        <mxCell id="7O-oKPZNZdEKcaRh6BN5-5" value="EL10" style="rounded=1;whiteSpace=wrap;html=1;fontColor=#025D8C;fontSize=16;strokeWidth=3;strokeColor=#025D8C;align=center;labelBackgroundColor=none;" parent="1" vertex="1">
          <mxGeometry x="520" y="200" width="120" height="40" as="geometry" />
        </mxCell>
        <mxCell id="7O-oKPZNZdEKcaRh6BN5-6" value="git" style="rounded=1;whiteSpace=wrap;html=1;fontColor=#025D8C;fontSize=16;strokeWidth=3;strokeColor=#025D8C;align=center;labelBackgroundColor=none;" parent="1" vertex="1">
          <mxGeometry x="540" y="280" width="100" height="40" as="geometry" />
        </mxCell>
        <mxCell id="7O-oKPZNZdEKcaRh6BN5-7" value="container" style="rounded=1;whiteSpace=wrap;html=1;fontColor=#025D8C;fontSize=16;strokeWidth=3;strokeColor=#025D8C;align=center;labelBackgroundColor=none;" parent="1" vertex="1">
          <mxGeometry x="540" y="360" width="100" height="40" as="geometry" />
        </mxCell>
        <mxCell id="7O-oKPZNZdEKcaRh6BN5-8" value="EL9" style="rounded=1;whiteSpace=wrap;html=1;fontColor=#025D8C;fontSize=16;strokeWidth=3;strokeColor=#025D8C;align=center;labelBackgroundColor=none;" parent="1" vertex="1">
          <mxGeometry x="520" y="440" width="120" height="40" as="geometry" />
        </mxCell>
        <mxCell id="7O-oKPZNZdEKcaRh6BN5-9" value="loghost" style="rounded=1;whiteSpace=wrap;html=1;fontColor=#025D8C;fontSize=16;strokeWidth=3;strokeColor=#025D8C;align=center;labelBackgroundColor=none;" parent="1" vertex="1">
          <mxGeometry x="540" y="520" width="100" height="40" as="geometry" />
        </mxCell>
        <mxCell id="7O-oKPZNZdEKcaRh6BN5-10" value="QA" style="rounded=1;whiteSpace=wrap;html=1;fontColor=#025D8C;fontSize=16;strokeWidth=3;strokeColor=#025D8C;fontStyle=1;align=center;labelBackgroundColor=none;" parent="1" vertex="1">
          <mxGeometry x="500" y="600" width="140" height="40" as="geometry" />
        </mxCell>
        <mxCell id="7O-oKPZNZdEKcaRh6BN5-25" value="Flat" style="rounded=1;whiteSpace=wrap;html=1;fontColor=#FFFFFF;fontSize=16;strokeColor=none;fillColor=#025D8C;labelBackgroundColor=#025D8C;" parent="1" vertex="1">
          <mxGeometry x="200" y="40" width="160" height="40" as="geometry" />
        </mxCell>
        <mxCell id="7O-oKPZNZdEKcaRh6BN5-26" value="Lifecycle Environment Based" style="rounded=1;whiteSpace=wrap;html=1;fontColor=#FFFFFF;fontSize=16;strokeColor=none;fillColor=#025D8C;labelBackgroundColor=#025D8C;" parent="1" vertex="1">
          <mxGeometry x="480" y="40" width="160" height="40" as="geometry" />
        </mxCell>
        <mxCell id="7O-oKPZNZdEKcaRh6BN5-27" value="Application Based" style="rounded=1;whiteSpace=wrap;html=1;fontColor=#FFFFFF;fontSize=16;strokeColor=none;fillColor=#025D8C;labelBackgroundColor=#025D8C;" parent="1" vertex="1">
          <mxGeometry x="760" y="40" width="160" height="40" as="geometry" />
        </mxCell>
        <mxCell id="7O-oKPZNZdEKcaRh6BN5-28" value="Location Based" style="rounded=1;whiteSpace=wrap;html=1;fontColor=#FFFFFF;fontSize=16;strokeColor=none;fillColor=#025D8C;labelBackgroundColor=#025D8C;" parent="1" vertex="1">
          <mxGeometry x="1040" y="40" width="160" height="40" as="geometry" />
        </mxCell>
        <mxCell id="cgGRlLPwuKFJVhVus3fT-2" value="" style="endArrow=none;html=1;rounded=0;fontColor=#025D8C;strokeColor=#025D8C;strokeWidth=3;labelBackgroundColor=none;" parent="1" edge="1">
          <mxGeometry width="50" height="50" relative="1" as="geometry">
            <mxPoint x="200" y="300" as="sourcePoint" />
            <mxPoint x="200" y="100" as="targetPoint" />
          </mxGeometry>
        </mxCell>
        <mxCell id="cgGRlLPwuKFJVhVus3fT-3" value="" style="endArrow=none;html=1;rounded=0;fontColor=#025D8C;strokeColor=#025D8C;strokeWidth=3;labelBackgroundColor=none;" parent="1" edge="1">
          <mxGeometry width="50" height="50" relative="1" as="geometry">
            <mxPoint x="480" y="620" as="sourcePoint" />
            <mxPoint x="480" y="100" as="targetPoint" />
          </mxGeometry>
        </mxCell>
        <mxCell id="cgGRlLPwuKFJVhVus3fT-7" value="" style="endArrow=none;html=1;rounded=0;fontColor=#025D8C;strokeColor=#025D8C;strokeWidth=3;labelBackgroundColor=none;" parent="1" source="7O-oKPZNZdEKcaRh6BN5-1" edge="1">
          <mxGeometry width="50" height="50" relative="1" as="geometry">
            <mxPoint x="360" y="440" as="sourcePoint" />
            <mxPoint x="200" y="140" as="targetPoint" />
          </mxGeometry>
        </mxCell>
        <mxCell id="cgGRlLPwuKFJVhVus3fT-8" value="" style="endArrow=none;html=1;rounded=0;fontColor=#025D8C;strokeColor=#025D8C;strokeWidth=3;labelBackgroundColor=none;" parent="1" source="7O-oKPZNZdEKcaRh6BN5-2" edge="1">
          <mxGeometry width="50" height="50" relative="1" as="geometry">
            <mxPoint x="230" y="150" as="sourcePoint" />
            <mxPoint x="200" y="220" as="targetPoint" />
          </mxGeometry>
        </mxCell>
        <mxCell id="cgGRlLPwuKFJVhVus3fT-9" value="" style="endArrow=none;html=1;rounded=0;fontColor=#025D8C;strokeColor=#025D8C;strokeWidth=3;labelBackgroundColor=none;" parent="1" source="7O-oKPZNZdEKcaRh6BN5-3" edge="1">
          <mxGeometry width="50" height="50" relative="1" as="geometry">
            <mxPoint x="230" y="230" as="sourcePoint" />
            <mxPoint x="200" y="300" as="targetPoint" />
          </mxGeometry>
        </mxCell>
        <mxCell id="cgGRlLPwuKFJVhVus3fT-10" value="" style="endArrow=none;html=1;rounded=0;fontColor=#025D8C;strokeColor=#025D8C;strokeWidth=3;labelBackgroundColor=none;" parent="1" target="7O-oKPZNZdEKcaRh6BN5-8" edge="1">
          <mxGeometry width="50" height="50" relative="1" as="geometry">
            <mxPoint x="500" y="460" as="sourcePoint" />
            <mxPoint x="350" y="390" as="targetPoint" />
          </mxGeometry>
        </mxCell>
        <mxCell id="cgGRlLPwuKFJVhVus3fT-11" value="" style="endArrow=none;html=1;rounded=0;fontColor=#025D8C;strokeColor=#025D8C;strokeWidth=3;labelBackgroundColor=none;" parent="1" edge="1">
          <mxGeometry width="50" height="50" relative="1" as="geometry">
            <mxPoint x="519" y="380" as="sourcePoint" />
            <mxPoint x="519" y="240" as="targetPoint" />
          </mxGeometry>
        </mxCell>
        <mxCell id="cgGRlLPwuKFJVhVus3fT-12" value="" style="endArrow=none;html=1;rounded=0;fontColor=#025D8C;strokeColor=#025D8C;strokeWidth=3;labelBackgroundColor=none;" parent="1" source="7O-oKPZNZdEKcaRh6BN5-10" edge="1">
          <mxGeometry width="50" height="50" relative="1" as="geometry">
            <mxPoint x="370" y="630" as="sourcePoint" />
            <mxPoint x="480" y="620" as="targetPoint" />
          </mxGeometry>
        </mxCell>
        <mxCell id="cgGRlLPwuKFJVhVus3fT-13" value="" style="endArrow=none;html=1;rounded=0;fontColor=#025D8C;strokeColor=#025D8C;strokeWidth=3;labelBackgroundColor=none;" parent="1" edge="1">
          <mxGeometry width="50" height="50" relative="1" as="geometry">
            <mxPoint x="500" y="460" as="sourcePoint" />
            <mxPoint x="500" y="160" as="targetPoint" />
          </mxGeometry>
        </mxCell>
        <mxCell id="cgGRlLPwuKFJVhVus3fT-16" value="" style="endArrow=none;html=1;rounded=0;fontColor=#025D8C;strokeColor=#025D8C;strokeWidth=3;labelBackgroundColor=none;" parent="1" target="7O-oKPZNZdEKcaRh6BN5-4" edge="1">
          <mxGeometry width="50" height="50" relative="1" as="geometry">
            <mxPoint x="480" y="140" as="sourcePoint" />
            <mxPoint x="410" y="450" as="targetPoint" />
          </mxGeometry>
        </mxCell>
        <mxCell id="cgGRlLPwuKFJVhVus3fT-17" value="" style="endArrow=none;html=1;rounded=0;fontColor=#025D8C;strokeColor=#025D8C;strokeWidth=3;labelBackgroundColor=none;" parent="1" target="7O-oKPZNZdEKcaRh6BN5-6" edge="1">
          <mxGeometry width="50" height="50" relative="1" as="geometry">
            <mxPoint x="520" y="300" as="sourcePoint" />
            <mxPoint x="529" y="250" as="targetPoint" />
          </mxGeometry>
        </mxCell>
        <mxCell id="cgGRlLPwuKFJVhVus3fT-18" value="" style="endArrow=none;html=1;rounded=0;fontColor=#025D8C;strokeColor=#025D8C;strokeWidth=3;labelBackgroundColor=none;" parent="1" target="7O-oKPZNZdEKcaRh6BN5-7" edge="1">
          <mxGeometry width="50" height="50" relative="1" as="geometry">
            <mxPoint x="520" y="380" as="sourcePoint" />
            <mxPoint x="550" y="310" as="targetPoint" />
          </mxGeometry>
        </mxCell>
        <mxCell id="cgGRlLPwuKFJVhVus3fT-19" value="" style="endArrow=none;html=1;rounded=0;fontColor=#025D8C;strokeColor=#025D8C;strokeWidth=3;labelBackgroundColor=none;" parent="1" edge="1">
          <mxGeometry width="50" height="50" relative="1" as="geometry">
            <mxPoint x="520" y="540" as="sourcePoint" />
            <mxPoint x="520" y="480" as="targetPoint" />
          </mxGeometry>
        </mxCell>
        <mxCell id="cgGRlLPwuKFJVhVus3fT-20" value="" style="endArrow=none;html=1;rounded=0;fontColor=#025D8C;strokeColor=#025D8C;strokeWidth=3;labelBackgroundColor=none;" parent="1" source="7O-oKPZNZdEKcaRh6BN5-9" edge="1">
          <mxGeometry width="50" height="50" relative="1" as="geometry">
            <mxPoint x="530" y="550" as="sourcePoint" />
            <mxPoint x="520" y="540" as="targetPoint" />
          </mxGeometry>
        </mxCell>
        <mxCell id="cgGRlLPwuKFJVhVus3fT-21" value="ACME Web" style="rounded=1;whiteSpace=wrap;html=1;fontColor=#025D8C;fontSize=16;strokeWidth=3;strokeColor=#025D8C;fontStyle=1;align=center;labelBackgroundColor=none;" parent="1" vertex="1">
          <mxGeometry x="780" y="120" width="140" height="40" as="geometry" />
        </mxCell>
        <mxCell id="cgGRlLPwuKFJVhVus3fT-22" value="frontend" style="rounded=1;whiteSpace=wrap;html=1;fontColor=#025D8C;fontSize=16;strokeWidth=3;strokeColor=#025D8C;align=center;labelBackgroundColor=none;" parent="1" vertex="1">
          <mxGeometry x="800" y="200" width="120" height="40" as="geometry" />
        </mxCell>
        <mxCell id="cgGRlLPwuKFJVhVus3fT-23" value="web-dev" style="rounded=1;whiteSpace=wrap;html=1;fontColor=#025D8C;fontSize=16;strokeWidth=3;strokeColor=#025D8C;align=center;labelBackgroundColor=none;" parent="1" vertex="1">
          <mxGeometry x="820" y="280" width="100" height="40" as="geometry" />
        </mxCell>
        <mxCell id="cgGRlLPwuKFJVhVus3fT-24" value="web-qa" style="rounded=1;whiteSpace=wrap;html=1;fontColor=#025D8C;fontSize=16;strokeWidth=3;strokeColor=#025D8C;align=center;labelBackgroundColor=none;" parent="1" vertex="1">
          <mxGeometry x="820" y="360" width="100" height="40" as="geometry" />
        </mxCell>
        <mxCell id="cgGRlLPwuKFJVhVus3fT-25" value="backend" style="rounded=1;whiteSpace=wrap;html=1;fontColor=#025D8C;fontSize=16;strokeWidth=3;strokeColor=#025D8C;align=center;labelBackgroundColor=none;" parent="1" vertex="1">
          <mxGeometry x="800" y="440" width="120" height="40" as="geometry" />
        </mxCell>
        <mxCell id="cgGRlLPwuKFJVhVus3fT-26" value="web-dev" style="rounded=1;whiteSpace=wrap;html=1;fontColor=#025D8C;fontSize=16;strokeWidth=3;strokeColor=#025D8C;align=center;labelBackgroundColor=none;" parent="1" vertex="1">
          <mxGeometry x="820" y="520" width="100" height="40" as="geometry" />
        </mxCell>
        <mxCell id="cgGRlLPwuKFJVhVus3fT-27" value="infra" style="rounded=1;whiteSpace=wrap;html=1;fontColor=#025D8C;fontSize=16;strokeWidth=3;strokeColor=#025D8C;fontStyle=1;align=center;labelBackgroundColor=none;" parent="1" vertex="1">
          <mxGeometry x="780" y="600" width="140" height="40" as="geometry" />
        </mxCell>
        <mxCell id="cgGRlLPwuKFJVhVus3fT-28" value="" style="endArrow=none;html=1;rounded=0;fontColor=#025D8C;strokeColor=#025D8C;strokeWidth=3;labelBackgroundColor=none;" parent="1" edge="1">
          <mxGeometry width="50" height="50" relative="1" as="geometry">
            <mxPoint x="760" y="620" as="sourcePoint" />
            <mxPoint x="760" y="100" as="targetPoint" />
          </mxGeometry>
        </mxCell>
        <mxCell id="cgGRlLPwuKFJVhVus3fT-29" value="" style="endArrow=none;html=1;rounded=0;fontColor=#025D8C;strokeColor=#025D8C;strokeWidth=3;labelBackgroundColor=none;" parent="1" target="cgGRlLPwuKFJVhVus3fT-25" edge="1">
          <mxGeometry width="50" height="50" relative="1" as="geometry">
            <mxPoint x="780" y="460" as="sourcePoint" />
            <mxPoint x="630" y="390" as="targetPoint" />
          </mxGeometry>
        </mxCell>
        <mxCell id="cgGRlLPwuKFJVhVus3fT-30" value="" style="endArrow=none;html=1;rounded=0;fontColor=#025D8C;strokeColor=#025D8C;strokeWidth=3;labelBackgroundColor=none;" parent="1" edge="1">
          <mxGeometry width="50" height="50" relative="1" as="geometry">
            <mxPoint x="799" y="380" as="sourcePoint" />
            <mxPoint x="799" y="240" as="targetPoint" />
          </mxGeometry>
        </mxCell>
        <mxCell id="cgGRlLPwuKFJVhVus3fT-31" value="" style="endArrow=none;html=1;rounded=0;fontColor=#025D8C;strokeColor=#025D8C;strokeWidth=3;labelBackgroundColor=none;" parent="1" source="cgGRlLPwuKFJVhVus3fT-27" edge="1">
          <mxGeometry width="50" height="50" relative="1" as="geometry">
            <mxPoint x="650" y="630" as="sourcePoint" />
            <mxPoint x="760" y="620" as="targetPoint" />
          </mxGeometry>
        </mxCell>
        <mxCell id="cgGRlLPwuKFJVhVus3fT-32" value="" style="endArrow=none;html=1;rounded=0;fontColor=#025D8C;strokeColor=#025D8C;strokeWidth=3;labelBackgroundColor=none;" parent="1" edge="1">
          <mxGeometry width="50" height="50" relative="1" as="geometry">
            <mxPoint x="780" y="460" as="sourcePoint" />
            <mxPoint x="780" y="160" as="targetPoint" />
          </mxGeometry>
        </mxCell>
        <mxCell id="cgGRlLPwuKFJVhVus3fT-33" value="" style="endArrow=none;html=1;rounded=0;fontColor=#025D8C;strokeColor=#025D8C;strokeWidth=3;labelBackgroundColor=none;" parent="1" target="cgGRlLPwuKFJVhVus3fT-21" edge="1">
          <mxGeometry width="50" height="50" relative="1" as="geometry">
            <mxPoint x="760" y="140" as="sourcePoint" />
            <mxPoint x="690" y="450" as="targetPoint" />
          </mxGeometry>
        </mxCell>
        <mxCell id="cgGRlLPwuKFJVhVus3fT-34" value="" style="endArrow=none;html=1;rounded=0;fontColor=#025D8C;strokeColor=#025D8C;strokeWidth=3;labelBackgroundColor=none;" parent="1" target="cgGRlLPwuKFJVhVus3fT-23" edge="1">
          <mxGeometry width="50" height="50" relative="1" as="geometry">
            <mxPoint x="800" y="300" as="sourcePoint" />
            <mxPoint x="809" y="250" as="targetPoint" />
          </mxGeometry>
        </mxCell>
        <mxCell id="cgGRlLPwuKFJVhVus3fT-35" value="" style="endArrow=none;html=1;rounded=0;fontColor=#025D8C;strokeColor=#025D8C;strokeWidth=3;labelBackgroundColor=none;" parent="1" target="cgGRlLPwuKFJVhVus3fT-24" edge="1">
          <mxGeometry width="50" height="50" relative="1" as="geometry">
            <mxPoint x="800" y="380" as="sourcePoint" />
            <mxPoint x="830" y="310" as="targetPoint" />
          </mxGeometry>
        </mxCell>
        <mxCell id="cgGRlLPwuKFJVhVus3fT-36" value="" style="endArrow=none;html=1;rounded=0;fontColor=#025D8C;strokeColor=#025D8C;strokeWidth=3;labelBackgroundColor=none;" parent="1" edge="1">
          <mxGeometry width="50" height="50" relative="1" as="geometry">
            <mxPoint x="800" y="540" as="sourcePoint" />
            <mxPoint x="800" y="480" as="targetPoint" />
          </mxGeometry>
        </mxCell>
        <mxCell id="cgGRlLPwuKFJVhVus3fT-37" value="" style="endArrow=none;html=1;rounded=0;fontColor=#025D8C;strokeColor=#025D8C;strokeWidth=3;labelBackgroundColor=none;" parent="1" source="cgGRlLPwuKFJVhVus3fT-26" edge="1">
          <mxGeometry width="50" height="50" relative="1" as="geometry">
            <mxPoint x="810" y="550" as="sourcePoint" />
            <mxPoint x="800" y="540" as="targetPoint" />
          </mxGeometry>
        </mxCell>
        <mxCell id="cgGRlLPwuKFJVhVus3fT-38" value="Munich" style="rounded=1;whiteSpace=wrap;html=1;fontColor=#025D8C;fontSize=16;strokeWidth=3;strokeColor=#025D8C;fontStyle=1;align=center;labelBackgroundColor=none;" parent="1" vertex="1">
          <mxGeometry x="1060" y="120" width="140" height="40" as="geometry" />
        </mxCell>
        <mxCell id="cgGRlLPwuKFJVhVus3fT-39" value="web-dev" style="rounded=1;whiteSpace=wrap;html=1;fontColor=#025D8C;fontSize=16;strokeWidth=3;strokeColor=#025D8C;align=center;labelBackgroundColor=none;" parent="1" vertex="1">
          <mxGeometry x="1080" y="200" width="120" height="40" as="geometry" />
        </mxCell>
        <mxCell id="cgGRlLPwuKFJVhVus3fT-40" value="web-frontend" style="rounded=1;whiteSpace=wrap;html=1;fontColor=#025D8C;fontSize=16;strokeWidth=3;strokeColor=#025D8C;align=center;labelBackgroundColor=none;" parent="1" vertex="1">
          <mxGeometry x="1100" y="280" width="100" height="40" as="geometry" />
        </mxCell>
        <mxCell id="cgGRlLPwuKFJVhVus3fT-41" value="web-backend" style="rounded=1;whiteSpace=wrap;html=1;fontColor=#025D8C;fontSize=16;strokeWidth=3;strokeColor=#025D8C;align=center;labelBackgroundColor=none;" parent="1" vertex="1">
          <mxGeometry x="1100" y="360" width="100" height="40" as="geometry" />
        </mxCell>
        <mxCell id="cgGRlLPwuKFJVhVus3fT-42" value="web-qa" style="rounded=1;whiteSpace=wrap;html=1;fontColor=#025D8C;fontSize=16;strokeWidth=3;strokeColor=#025D8C;align=center;labelBackgroundColor=none;" parent="1" vertex="1">
          <mxGeometry x="1080" y="440" width="120" height="40" as="geometry" />
        </mxCell>
        <mxCell id="cgGRlLPwuKFJVhVus3fT-43" value="web-frontend" style="rounded=1;whiteSpace=wrap;html=1;fontColor=#025D8C;fontSize=16;strokeWidth=3;strokeColor=#025D8C;align=center;labelBackgroundColor=none;" parent="1" vertex="1">
          <mxGeometry x="1100" y="520" width="100" height="40" as="geometry" />
        </mxCell>
        <mxCell id="cgGRlLPwuKFJVhVus3fT-44" value="Boston" style="rounded=1;whiteSpace=wrap;html=1;fontColor=#025D8C;fontSize=16;strokeWidth=3;strokeColor=#025D8C;fontStyle=1;align=center;labelBackgroundColor=none;" parent="1" vertex="1">
          <mxGeometry x="1060" y="600" width="140" height="40" as="geometry" />
        </mxCell>
        <mxCell id="cgGRlLPwuKFJVhVus3fT-45" value="" style="endArrow=none;html=1;rounded=0;fontColor=#025D8C;strokeColor=#025D8C;strokeWidth=3;labelBackgroundColor=none;" parent="1" edge="1">
          <mxGeometry width="50" height="50" relative="1" as="geometry">
            <mxPoint x="1040" y="620" as="sourcePoint" />
            <mxPoint x="1040" y="100" as="targetPoint" />
          </mxGeometry>
        </mxCell>
        <mxCell id="cgGRlLPwuKFJVhVus3fT-46" value="" style="endArrow=none;html=1;rounded=0;fontColor=#025D8C;strokeColor=#025D8C;strokeWidth=3;labelBackgroundColor=none;" parent="1" target="cgGRlLPwuKFJVhVus3fT-42" edge="1">
          <mxGeometry width="50" height="50" relative="1" as="geometry">
            <mxPoint x="1060" y="460" as="sourcePoint" />
            <mxPoint x="910" y="390" as="targetPoint" />
          </mxGeometry>
        </mxCell>
        <mxCell id="cgGRlLPwuKFJVhVus3fT-47" value="" style="endArrow=none;html=1;rounded=0;fontColor=#025D8C;strokeColor=#025D8C;strokeWidth=3;labelBackgroundColor=none;" parent="1" edge="1">
          <mxGeometry width="50" height="50" relative="1" as="geometry">
            <mxPoint x="1079" y="380" as="sourcePoint" />
            <mxPoint x="1079" y="240" as="targetPoint" />
          </mxGeometry>
        </mxCell>
        <mxCell id="cgGRlLPwuKFJVhVus3fT-48" value="" style="endArrow=none;html=1;rounded=0;fontColor=#025D8C;strokeColor=#025D8C;strokeWidth=3;labelBackgroundColor=none;" parent="1" source="cgGRlLPwuKFJVhVus3fT-44" edge="1">
          <mxGeometry width="50" height="50" relative="1" as="geometry">
            <mxPoint x="930" y="630" as="sourcePoint" />
            <mxPoint x="1040" y="620" as="targetPoint" />
          </mxGeometry>
        </mxCell>
        <mxCell id="cgGRlLPwuKFJVhVus3fT-49" value="" style="endArrow=none;html=1;rounded=0;fontColor=#025D8C;strokeColor=#025D8C;strokeWidth=3;labelBackgroundColor=none;" parent="1" edge="1">
          <mxGeometry width="50" height="50" relative="1" as="geometry">
            <mxPoint x="1060" y="460" as="sourcePoint" />
            <mxPoint x="1060" y="160" as="targetPoint" />
          </mxGeometry>
        </mxCell>
        <mxCell id="cgGRlLPwuKFJVhVus3fT-50" value="" style="endArrow=none;html=1;rounded=0;fontColor=#025D8C;strokeColor=#025D8C;strokeWidth=3;labelBackgroundColor=none;" parent="1" target="cgGRlLPwuKFJVhVus3fT-38" edge="1">
          <mxGeometry width="50" height="50" relative="1" as="geometry">
            <mxPoint x="1040" y="140" as="sourcePoint" />
            <mxPoint x="970" y="450" as="targetPoint" />
          </mxGeometry>
        </mxCell>
        <mxCell id="cgGRlLPwuKFJVhVus3fT-51" value="" style="endArrow=none;html=1;rounded=0;fontColor=#025D8C;strokeColor=#025D8C;strokeWidth=3;labelBackgroundColor=none;" parent="1" target="cgGRlLPwuKFJVhVus3fT-40" edge="1">
          <mxGeometry width="50" height="50" relative="1" as="geometry">
            <mxPoint x="1080" y="300" as="sourcePoint" />
            <mxPoint x="1089" y="250" as="targetPoint" />
          </mxGeometry>
        </mxCell>
        <mxCell id="cgGRlLPwuKFJVhVus3fT-52" value="" style="endArrow=none;html=1;rounded=0;fontColor=#025D8C;strokeColor=#025D8C;strokeWidth=3;labelBackgroundColor=none;" parent="1" target="cgGRlLPwuKFJVhVus3fT-41" edge="1">
          <mxGeometry width="50" height="50" relative="1" as="geometry">
            <mxPoint x="1080" y="380" as="sourcePoint" />
            <mxPoint x="1110" y="310" as="targetPoint" />
          </mxGeometry>
        </mxCell>
        <mxCell id="cgGRlLPwuKFJVhVus3fT-53" value="" style="endArrow=none;html=1;rounded=0;fontColor=#025D8C;strokeColor=#025D8C;strokeWidth=3;labelBackgroundColor=none;" parent="1" edge="1">
          <mxGeometry width="50" height="50" relative="1" as="geometry">
            <mxPoint x="1080" y="540" as="sourcePoint" />
            <mxPoint x="1080" y="480" as="targetPoint" />
          </mxGeometry>
        </mxCell>
        <mxCell id="cgGRlLPwuKFJVhVus3fT-54" value="" style="endArrow=none;html=1;rounded=0;fontColor=#025D8C;strokeColor=#025D8C;strokeWidth=3;labelBackgroundColor=none;" parent="1" source="cgGRlLPwuKFJVhVus3fT-43" edge="1">
          <mxGeometry width="50" height="50" relative="1" as="geometry">
            <mxPoint x="1090" y="550" as="sourcePoint" />
            <mxPoint x="1080" y="540" as="targetPoint" />
          </mxGeometry>
        </mxCell>
      </root>
    </mxGraphModel>
  </diagram>
  <diagram id="yMFB7vXO7va46bOLm8Zo" name="server-multiple-manifests">
    <mxGraphModel dx="1392" dy="791" grid="1" gridSize="10" guides="1" tooltips="1" connect="1" arrows="1" fold="1" page="1" pageScale="1" pageWidth="1600" pageHeight="900" math="0" shadow="0">
      <root>
        <mxCell id="0" />
        <mxCell id="1" parent="0" />
        <mxCell id="ZonD49dTbsusxGbLX9ok-18" value="" style="rounded=1;whiteSpace=wrap;html=1;fontColor=#025D8C;fontSize=16;strokeWidth=3;strokeColor=#025D8C;align=center;labelBackgroundColor=none;" parent="1" vertex="1">
          <mxGeometry x="540" y="500" width="680" height="140" as="geometry" />
        </mxCell>
        <mxCell id="ZonD49dTbsusxGbLX9ok-12" value="" style="rounded=1;whiteSpace=wrap;html=1;fontColor=#025D8C;fontSize=16;strokeWidth=3;strokeColor=#025D8C;align=center;labelBackgroundColor=none;" parent="1" vertex="1">
          <mxGeometry x="540" y="180" width="160" height="280" as="geometry" />
        </mxCell>
        <mxCell id="ZonD49dTbsusxGbLX9ok-10" value="" style="rounded=1;whiteSpace=wrap;html=1;fontColor=#025D8C;fontSize=16;strokeWidth=3;strokeColor=#025D8C;align=center;labelBackgroundColor=none;" parent="1" vertex="1">
          <mxGeometry x="740" y="180" width="480" height="280" as="geometry" />
        </mxCell>
        <mxCell id="ZonD49dTbsusxGbLX9ok-1" value="IT&amp;nbsp; Subscriptions (30)" style="rounded=1;whiteSpace=wrap;html=1;fontColor=#025D8C;fontSize=16;strokeWidth=3;strokeColor=#025D8C;align=center;fillColor=none;labelBackgroundColor=none;" parent="1" vertex="1">
          <mxGeometry x="560" y="360" width="120" height="80" as="geometry" />
        </mxCell>
        <mxCell id="ZonD49dTbsusxGbLX9ok-2" value="R&amp;amp;D Subscriptions (30)" style="rounded=1;whiteSpace=wrap;html=1;fontColor=#025D8C;fontSize=16;strokeWidth=3;strokeColor=#025D8C;align=center;fillColor=none;labelBackgroundColor=none;" parent="1" vertex="1">
          <mxGeometry x="760" y="360" width="120" height="80" as="geometry" />
        </mxCell>
        <mxCell id="ZonD49dTbsusxGbLX9ok-3" value="Operations Subscriptions (50)" style="rounded=1;whiteSpace=wrap;html=1;fontColor=#025D8C;fontSize=16;strokeWidth=3;strokeColor=#025D8C;align=center;fillColor=none;labelBackgroundColor=none;" parent="1" vertex="1">
          <mxGeometry x="920" y="360" width="120" height="80" as="geometry" />
        </mxCell>
        <mxCell id="ZonD49dTbsusxGbLX9ok-4" value="Engineering Subscriptions (20)" style="rounded=1;whiteSpace=wrap;html=1;fontColor=#025D8C;fontSize=16;strokeWidth=3;strokeColor=#025D8C;align=center;fillColor=none;labelBackgroundColor=none;" parent="1" vertex="1">
          <mxGeometry x="1080" y="360" width="120" height="80" as="geometry" />
        </mxCell>
        <mxCell id="ZonD49dTbsusxGbLX9ok-5" value="Manifest" style="text;html=1;align=center;verticalAlign=middle;whiteSpace=wrap;rounded=0;fontColor=#025D8C;fontSize=16;fontStyle=1;labelBackgroundColor=none;" parent="1" vertex="1">
          <mxGeometry x="760" y="320" width="60" height="30" as="geometry" />
        </mxCell>
        <mxCell id="ZonD49dTbsusxGbLX9ok-6" value="Manifest" style="text;html=1;align=center;verticalAlign=middle;whiteSpace=wrap;rounded=0;fontColor=#025D8C;fontSize=16;fontStyle=1;labelBackgroundColor=none;" parent="1" vertex="1">
          <mxGeometry x="920" y="320" width="60" height="30" as="geometry" />
        </mxCell>
        <mxCell id="ZonD49dTbsusxGbLX9ok-7" value="Manifest" style="text;html=1;align=center;verticalAlign=middle;whiteSpace=wrap;rounded=0;fontColor=#025D8C;fontSize=16;fontStyle=1;labelBackgroundColor=none;" parent="1" vertex="1">
          <mxGeometry x="1080" y="320" width="60" height="30" as="geometry" />
        </mxCell>
        <mxCell id="ZonD49dTbsusxGbLX9ok-8" value="Manifest" style="text;html=1;align=center;verticalAlign=middle;whiteSpace=wrap;rounded=0;fontColor=#025D8C;fontSize=16;fontStyle=1;labelBackgroundColor=none;" parent="1" vertex="1">
          <mxGeometry x="560" y="320" width="60" height="30" as="geometry" />
        </mxCell>
        <mxCell id="ZonD49dTbsusxGbLX9ok-11" value="Example Corporation 2" style="text;html=1;align=center;verticalAlign=middle;whiteSpace=wrap;rounded=0;fontColor=#025D8C;fontSize=16;fontStyle=1;labelBackgroundColor=none;" parent="1" vertex="1">
          <mxGeometry x="760" y="200" width="120" height="30" as="geometry" />
        </mxCell>
        <mxCell id="ZonD49dTbsusxGbLX9ok-13" value="Example Corporation 1" style="text;html=1;align=center;verticalAlign=middle;whiteSpace=wrap;rounded=0;fontColor=#025D8C;fontSize=16;fontStyle=1;labelBackgroundColor=none;" parent="1" vertex="1">
          <mxGeometry x="562.5" y="200" width="115" height="30" as="geometry" />
        </mxCell>
        <mxCell id="ZonD49dTbsusxGbLX9ok-14" value="Org 1" style="rounded=1;whiteSpace=wrap;html=1;fontColor=#025D8C;fontSize=16;strokeWidth=3;strokeColor=#025D8C;align=center;labelBackgroundColor=none;" parent="1" vertex="1">
          <mxGeometry x="560" y="540" width="120" height="40" as="geometry" />
        </mxCell>
        <mxCell id="ZonD49dTbsusxGbLX9ok-15" value="Org 2" style="rounded=1;whiteSpace=wrap;html=1;fontColor=#025D8C;fontSize=16;strokeWidth=3;strokeColor=#025D8C;align=center;labelBackgroundColor=none;" parent="1" vertex="1">
          <mxGeometry x="760" y="540" width="120" height="40" as="geometry" />
        </mxCell>
        <mxCell id="ZonD49dTbsusxGbLX9ok-16" value="Org 3" style="rounded=1;whiteSpace=wrap;html=1;fontColor=#025D8C;fontSize=16;strokeWidth=3;strokeColor=#025D8C;align=center;labelBackgroundColor=none;" parent="1" vertex="1">
          <mxGeometry x="920" y="540" width="120" height="40" as="geometry" />
        </mxCell>
        <mxCell id="ZonD49dTbsusxGbLX9ok-17" value="Org 4" style="rounded=1;whiteSpace=wrap;html=1;fontColor=#025D8C;fontSize=16;strokeWidth=3;strokeColor=#025D8C;align=center;labelBackgroundColor=none;" parent="1" vertex="1">
          <mxGeometry x="1080" y="540" width="120" height="40" as="geometry" />
        </mxCell>
        <mxCell id="ZonD49dTbsusxGbLX9ok-19" value="Foreman+Katello" style="text;html=1;align=center;verticalAlign=middle;whiteSpace=wrap;rounded=0;fontColor=#025D8C;fontSize=16;fontStyle=1;labelBackgroundColor=none;" parent="1" vertex="1">
          <mxGeometry x="580" y="600" width="80" height="30" as="geometry" />
        </mxCell>
        <mxCell id="ZonD49dTbsusxGbLX9ok-20" value="60 Subscriptions" style="text;html=1;align=center;verticalAlign=middle;whiteSpace=wrap;rounded=0;fontSize=13;labelBackgroundColor=none;" parent="1" vertex="1">
          <mxGeometry x="562.5" y="250" width="100" height="30" as="geometry" />
        </mxCell>
        <mxCell id="ZonD49dTbsusxGbLX9ok-21" value="100 Subscriptions" style="text;html=1;align=center;verticalAlign=middle;whiteSpace=wrap;rounded=0;fontSize=13;labelBackgroundColor=none;" parent="1" vertex="1">
          <mxGeometry x="760" y="250" width="110" height="30" as="geometry" />
        </mxCell>
        <mxCell id="ZonD49dTbsusxGbLX9ok-22" value="" style="endArrow=classic;html=1;rounded=0;strokeColor=#025D8C;strokeWidth=3;labelBackgroundColor=none;" parent="1" source="ZonD49dTbsusxGbLX9ok-1" target="ZonD49dTbsusxGbLX9ok-14" edge="1">
          <mxGeometry width="50" height="50" relative="1" as="geometry">
            <mxPoint x="290" y="520" as="sourcePoint" />
            <mxPoint x="340" y="470" as="targetPoint" />
          </mxGeometry>
        </mxCell>
        <mxCell id="ZonD49dTbsusxGbLX9ok-23" value="" style="endArrow=classic;html=1;rounded=0;strokeColor=#025D8C;strokeWidth=3;labelBackgroundColor=none;" parent="1" source="ZonD49dTbsusxGbLX9ok-2" target="ZonD49dTbsusxGbLX9ok-15" edge="1">
          <mxGeometry width="50" height="50" relative="1" as="geometry">
            <mxPoint x="621" y="450" as="sourcePoint" />
            <mxPoint x="594" y="570" as="targetPoint" />
          </mxGeometry>
        </mxCell>
        <mxCell id="ZonD49dTbsusxGbLX9ok-24" value="" style="endArrow=classic;html=1;rounded=0;strokeColor=#025D8C;strokeWidth=3;labelBackgroundColor=none;" parent="1" source="ZonD49dTbsusxGbLX9ok-3" target="ZonD49dTbsusxGbLX9ok-16" edge="1">
          <mxGeometry width="50" height="50" relative="1" as="geometry">
            <mxPoint x="830" y="450" as="sourcePoint" />
            <mxPoint x="830" y="570" as="targetPoint" />
          </mxGeometry>
        </mxCell>
        <mxCell id="ZonD49dTbsusxGbLX9ok-25" value="" style="endArrow=classic;html=1;rounded=0;strokeColor=#025D8C;strokeWidth=3;labelBackgroundColor=none;" parent="1" source="ZonD49dTbsusxGbLX9ok-4" target="ZonD49dTbsusxGbLX9ok-17" edge="1">
          <mxGeometry width="50" height="50" relative="1" as="geometry">
            <mxPoint x="990" y="450" as="sourcePoint" />
            <mxPoint x="990" y="570" as="targetPoint" />
          </mxGeometry>
        </mxCell>
      </root>
    </mxGraphModel>
  </diagram>
  <diagram id="RoAVHsCXLI3GwuUGauGl" name="system-architecture">
    <mxGraphModel dx="1392" dy="791" grid="1" gridSize="10" guides="1" tooltips="1" connect="1" arrows="1" fold="1" page="1" pageScale="1" pageWidth="1600" pageHeight="900" math="0" shadow="0">
      <root>
        <mxCell id="0" />
        <mxCell id="1" parent="0" />
        <mxCell id="dvC3RtYdscXiTqtHe58r-17" value="" style="rounded=0;whiteSpace=wrap;html=1;fillColor=none;dashed=1;dashPattern=1 1;strokeWidth=2;labelBackgroundColor=none;" parent="1" vertex="1">
          <mxGeometry x="310" y="20" width="1180" height="80" as="geometry" />
        </mxCell>
        <mxCell id="fyUGSk_a0tj3WXw86_DK-12" value="" style="rounded=1;whiteSpace=wrap;html=1;fontColor=#025D8C;fontSize=16;strokeWidth=3;strokeColor=#025D8C;align=center;fillColor=none;labelBackgroundColor=none;" parent="1" vertex="1">
          <mxGeometry x="640" y="160" width="240" height="280" as="geometry" />
        </mxCell>
        <mxCell id="fyUGSk_a0tj3WXw86_DK-10" value="" style="whiteSpace=wrap;html=1;aspect=fixed;strokeColor=#025D8C;fillColor=#FFFFFF;labelBackgroundColor=none;strokeWidth=3;" parent="1" vertex="1">
          <mxGeometry x="680" y="240" width="160" height="160" as="geometry" />
        </mxCell>
        <mxCell id="fyUGSk_a0tj3WXw86_DK-11" value="Organizations" style="text;html=1;align=center;verticalAlign=middle;whiteSpace=wrap;rounded=0;fontColor=#025D8C;fontSize=15;fontStyle=1;labelBackgroundColor=none;" parent="1" vertex="1">
          <mxGeometry x="690" y="250" width="120" height="30" as="geometry" />
        </mxCell>
        <mxCell id="fyUGSk_a0tj3WXw86_DK-13" value="Foreman+Katello" style="text;html=1;align=left;verticalAlign=middle;whiteSpace=wrap;rounded=0;fontColor=#025D8C;fontSize=18;fontStyle=1;labelBackgroundColor=none;" parent="1" vertex="1">
          <mxGeometry x="680" y="180" width="160" height="30" as="geometry" />
        </mxCell>
        <mxCell id="fyUGSk_a0tj3WXw86_DK-14" value="Red Hat manifest" style="rounded=1;whiteSpace=wrap;html=1;fontColor=#025D8C;fontSize=16;strokeWidth=3;strokeColor=#025D8C;align=center;fillColor=none;labelBackgroundColor=none;" parent="1" vertex="1">
          <mxGeometry x="330" y="40" width="140" height="40" as="geometry" />
        </mxCell>
        <mxCell id="fyUGSk_a0tj3WXw86_DK-15" value="Puppet" style="rounded=1;whiteSpace=wrap;html=1;fontColor=#025D8C;fontSize=16;strokeWidth=3;strokeColor=#025D8C;align=center;fillColor=none;labelBackgroundColor=none;" parent="1" vertex="1">
          <mxGeometry x="510" y="40" width="70" height="40" as="geometry" />
        </mxCell>
        <mxCell id="fyUGSk_a0tj3WXw86_DK-16" value="Container Registry" style="rounded=1;whiteSpace=wrap;html=1;fontColor=#025D8C;fontSize=16;strokeWidth=3;strokeColor=#025D8C;align=center;fillColor=none;labelBackgroundColor=none;" parent="1" vertex="1">
          <mxGeometry x="620" y="40" width="140" height="40" as="geometry" />
        </mxCell>
        <mxCell id="fyUGSk_a0tj3WXw86_DK-17" value="Git" style="rounded=1;whiteSpace=wrap;html=1;fontColor=#025D8C;fontSize=16;strokeWidth=3;strokeColor=#025D8C;align=center;fillColor=none;labelBackgroundColor=none;" parent="1" vertex="1">
          <mxGeometry x="920" y="40" width="50" height="40" as="geometry" />
        </mxCell>
        <mxCell id="fyUGSk_a0tj3WXw86_DK-18" value="SCAP" style="rounded=1;whiteSpace=wrap;html=1;fontColor=#025D8C;fontSize=16;strokeWidth=3;strokeColor=#025D8C;align=center;fillColor=none;labelBackgroundColor=none;" parent="1" vertex="1">
          <mxGeometry x="1000" y="40" width="70" height="40" as="geometry" />
        </mxCell>
        <mxCell id="fyUGSk_a0tj3WXw86_DK-19" value="Custom content" style="rounded=1;whiteSpace=wrap;html=1;fontColor=#025D8C;fontSize=16;strokeWidth=3;strokeColor=#025D8C;align=center;fillColor=none;labelBackgroundColor=none;" parent="1" vertex="1">
          <mxGeometry x="1220" y="40" width="140" height="40" as="geometry" />
        </mxCell>
        <mxCell id="dvC3RtYdscXiTqtHe58r-8" value="SUSE" style="rounded=1;whiteSpace=wrap;html=1;fontColor=#025D8C;fontSize=16;strokeWidth=3;strokeColor=#025D8C;align=center;fillColor=none;labelBackgroundColor=none;" parent="1" vertex="1">
          <mxGeometry x="1110" y="40" width="70" height="40" as="geometry" />
        </mxCell>
        <mxCell id="dvC3RtYdscXiTqtHe58r-9" value="Canonical" style="rounded=1;whiteSpace=wrap;html=1;fontColor=#025D8C;fontSize=16;strokeWidth=3;strokeColor=#025D8C;align=center;fillColor=none;labelBackgroundColor=none;" parent="1" vertex="1">
          <mxGeometry x="800" y="40" width="80" height="40" as="geometry" />
        </mxCell>
        <mxCell id="dvC3RtYdscXiTqtHe58r-13" value="" style="shape=actor;whiteSpace=wrap;html=1;strokeWidth=3;labelBackgroundColor=none;" parent="1" vertex="1">
          <mxGeometry x="350" y="210" width="40" height="60" as="geometry" />
        </mxCell>
        <mxCell id="dvC3RtYdscXiTqtHe58r-14" value="Operator" style="text;html=1;align=center;verticalAlign=middle;whiteSpace=wrap;rounded=0;fontColor=#025D8C;fontSize=15;fontStyle=1;labelBackgroundColor=none;" parent="1" vertex="1">
          <mxGeometry x="310" y="285" width="120" height="30" as="geometry" />
        </mxCell>
        <mxCell id="dvC3RtYdscXiTqtHe58r-16" value="Ansible " style="rounded=1;whiteSpace=wrap;html=1;fontColor=#025D8C;fontSize=16;strokeWidth=3;strokeColor=#025D8C;align=center;fillColor=none;labelBackgroundColor=none;" parent="1" vertex="1">
          <mxGeometry x="1400" y="40" width="70" height="40" as="geometry" />
        </mxCell>
        <mxCell id="sR32n_0iuzGaAFoW0qr7-1" value="" style="endArrow=classic;html=1;rounded=0;strokeColor=#025D8C;strokeWidth=3;exitX=0.597;exitY=1.013;exitDx=0;exitDy=0;exitPerimeter=0;labelBackgroundColor=none;" parent="1" source="dvC3RtYdscXiTqtHe58r-17" target="fyUGSk_a0tj3WXw86_DK-10" edge="1">
          <mxGeometry width="50" height="50" relative="1" as="geometry">
            <mxPoint x="1090" y="290" as="sourcePoint" />
            <mxPoint x="1090" y="390" as="targetPoint" />
          </mxGeometry>
        </mxCell>
        <mxCell id="sR32n_0iuzGaAFoW0qr7-2" value="" style="shape=actor;whiteSpace=wrap;html=1;strokeWidth=3;labelBackgroundColor=none;" parent="1" vertex="1">
          <mxGeometry x="1100" y="210" width="40" height="60" as="geometry" />
        </mxCell>
        <mxCell id="sR32n_0iuzGaAFoW0qr7-3" value="Analytics" style="text;html=1;align=center;verticalAlign=middle;whiteSpace=wrap;rounded=0;fontColor=#025D8C;fontSize=15;fontStyle=1;labelBackgroundColor=none;" parent="1" vertex="1">
          <mxGeometry x="1060" y="285" width="120" height="30" as="geometry" />
        </mxCell>
        <mxCell id="sR32n_0iuzGaAFoW0qr7-4" value="" style="endArrow=classic;html=1;rounded=0;strokeColor=#025D8C;strokeWidth=3;labelBackgroundColor=none;" parent="1" source="dvC3RtYdscXiTqtHe58r-14" target="fyUGSk_a0tj3WXw86_DK-12" edge="1">
          <mxGeometry width="50" height="50" relative="1" as="geometry">
            <mxPoint x="1024" y="111" as="sourcePoint" />
            <mxPoint x="850" y="261" as="targetPoint" />
          </mxGeometry>
        </mxCell>
        <mxCell id="sR32n_0iuzGaAFoW0qr7-5" value="" style="endArrow=classic;html=1;rounded=0;strokeColor=#025D8C;strokeWidth=3;labelBackgroundColor=none;" parent="1" source="fyUGSk_a0tj3WXw86_DK-12" target="sR32n_0iuzGaAFoW0qr7-3" edge="1">
          <mxGeometry width="50" height="50" relative="1" as="geometry">
            <mxPoint x="695" y="320" as="sourcePoint" />
            <mxPoint x="905" y="339" as="targetPoint" />
          </mxGeometry>
        </mxCell>
        <mxCell id="Nq98amvtWrVExl9TSa0s-1" value="Location 1" style="rounded=1;whiteSpace=wrap;html=1;fontColor=#025D8C;fontSize=16;strokeWidth=3;strokeColor=#025D8C;align=center;fillColor=none;labelBackgroundColor=none;" parent="1" vertex="1">
          <mxGeometry x="500" y="610" width="100" height="40" as="geometry" />
        </mxCell>
        <mxCell id="Jf6iWO9RtrincYPHwYvq-1" value="1" style="ellipse;whiteSpace=wrap;html=1;strokeWidth=3;strokeColor=#025D8C;fontSize=16;fontColor=#025D8C;labelBackgroundColor=none;" parent="1" vertex="1">
          <mxGeometry x="520" y="520" width="60" height="60" as="geometry" />
        </mxCell>
        <mxCell id="Jf6iWO9RtrincYPHwYvq-2" value="Location 2" style="rounded=1;whiteSpace=wrap;html=1;fontColor=#025D8C;fontSize=16;strokeWidth=3;strokeColor=#025D8C;align=center;fillColor=none;labelBackgroundColor=none;" parent="1" vertex="1">
          <mxGeometry x="640" y="610" width="100" height="40" as="geometry" />
        </mxCell>
        <mxCell id="Jf6iWO9RtrincYPHwYvq-3" value="Location 3" style="rounded=1;whiteSpace=wrap;html=1;fontColor=#025D8C;fontSize=16;strokeWidth=3;strokeColor=#025D8C;align=center;fillColor=none;labelBackgroundColor=none;" parent="1" vertex="1">
          <mxGeometry x="780" y="610" width="100" height="40" as="geometry" />
        </mxCell>
        <mxCell id="Jf6iWO9RtrincYPHwYvq-4" value="Location N" style="rounded=1;whiteSpace=wrap;html=1;fontColor=#025D8C;fontSize=16;strokeWidth=3;strokeColor=#025D8C;align=center;fillColor=none;labelBackgroundColor=none;" parent="1" vertex="1">
          <mxGeometry x="920" y="610" width="100" height="40" as="geometry" />
        </mxCell>
        <mxCell id="Jf6iWO9RtrincYPHwYvq-6" value="2" style="ellipse;whiteSpace=wrap;html=1;strokeWidth=3;strokeColor=#025D8C;fontSize=16;fontColor=#025D8C;labelBackgroundColor=none;" parent="1" vertex="1">
          <mxGeometry x="660" y="520" width="60" height="60" as="geometry" />
        </mxCell>
        <mxCell id="Jf6iWO9RtrincYPHwYvq-7" value="3" style="ellipse;whiteSpace=wrap;html=1;strokeWidth=3;strokeColor=#025D8C;fontSize=16;fontColor=#025D8C;labelBackgroundColor=none;" parent="1" vertex="1">
          <mxGeometry x="800" y="520" width="60" height="60" as="geometry" />
        </mxCell>
        <mxCell id="Jf6iWO9RtrincYPHwYvq-8" value="N" style="ellipse;whiteSpace=wrap;html=1;strokeWidth=3;strokeColor=#025D8C;fontSize=16;fontColor=#025D8C;labelBackgroundColor=none;" parent="1" vertex="1">
          <mxGeometry x="940" y="520" width="60" height="60" as="geometry" />
        </mxCell>
        <mxCell id="Jf6iWO9RtrincYPHwYvq-9" value="" style="rounded=0;whiteSpace=wrap;html=1;fillColor=none;dashed=1;dashPattern=1 1;strokeWidth=2;labelBackgroundColor=none;" parent="1" vertex="1">
          <mxGeometry x="480" y="590" width="560" height="80" as="geometry" />
        </mxCell>
        <mxCell id="Jf6iWO9RtrincYPHwYvq-10" value="Managed hosts" style="text;html=1;align=center;verticalAlign=middle;whiteSpace=wrap;rounded=0;fontColor=#025D8C;fontSize=15;fontStyle=1;labelBackgroundColor=none;" parent="1" vertex="1">
          <mxGeometry x="280" y="615" width="120" height="30" as="geometry" />
        </mxCell>
        <mxCell id="Jf6iWO9RtrincYPHwYvq-11" value="" style="endArrow=classic;html=1;rounded=0;strokeColor=#025D8C;strokeWidth=3;entryX=0;entryY=0.5;entryDx=0;entryDy=0;labelBackgroundColor=none;" parent="1" source="Jf6iWO9RtrincYPHwYvq-10" target="Jf6iWO9RtrincYPHwYvq-9" edge="1">
          <mxGeometry width="50" height="50" relative="1" as="geometry">
            <mxPoint x="894" y="356" as="sourcePoint" />
            <mxPoint x="510" y="545" as="targetPoint" />
          </mxGeometry>
        </mxCell>
        <mxCell id="Jf6iWO9RtrincYPHwYvq-12" value="Smart Proxy Servers" style="text;html=1;align=center;verticalAlign=middle;whiteSpace=wrap;rounded=0;fontColor=#025D8C;fontSize=15;fontStyle=1;labelBackgroundColor=none;" parent="1" vertex="1">
          <mxGeometry x="200" y="450" width="150" height="30" as="geometry" />
        </mxCell>
        <mxCell id="Jf6iWO9RtrincYPHwYvq-13" value="" style="endArrow=classic;html=1;rounded=0;strokeColor=#025D8C;strokeWidth=3;labelBackgroundColor=none;" parent="1" source="Jf6iWO9RtrincYPHwYvq-12" target="Jf6iWO9RtrincYPHwYvq-1" edge="1">
          <mxGeometry width="50" height="50" relative="1" as="geometry">
            <mxPoint x="884" y="176" as="sourcePoint" />
            <mxPoint x="470" y="450" as="targetPoint" />
          </mxGeometry>
        </mxCell>
        <mxCell id="Jf6iWO9RtrincYPHwYvq-15" value="" style="endArrow=classic;html=1;rounded=0;strokeColor=#025D8C;strokeWidth=3;labelBackgroundColor=none;" parent="1" source="fyUGSk_a0tj3WXw86_DK-12" target="Jf6iWO9RtrincYPHwYvq-6" edge="1">
          <mxGeometry width="50" height="50" relative="1" as="geometry">
            <mxPoint x="652" y="450" as="sourcePoint" />
            <mxPoint x="579" y="537" as="targetPoint" />
          </mxGeometry>
        </mxCell>
        <mxCell id="Jf6iWO9RtrincYPHwYvq-16" value="" style="endArrow=classic;html=1;rounded=0;strokeColor=#025D8C;strokeWidth=3;labelBackgroundColor=none;" parent="1" source="fyUGSk_a0tj3WXw86_DK-12" target="Jf6iWO9RtrincYPHwYvq-8" edge="1">
          <mxGeometry width="50" height="50" relative="1" as="geometry">
            <mxPoint x="731" y="450" as="sourcePoint" />
            <mxPoint x="708" y="531" as="targetPoint" />
          </mxGeometry>
        </mxCell>
        <mxCell id="Jf6iWO9RtrincYPHwYvq-17" value="" style="endArrow=classic;html=1;rounded=0;strokeColor=#025D8C;strokeWidth=3;labelBackgroundColor=none;" parent="1" source="fyUGSk_a0tj3WXw86_DK-12" target="Jf6iWO9RtrincYPHwYvq-7" edge="1">
          <mxGeometry width="50" height="50" relative="1" as="geometry">
            <mxPoint x="888" y="450" as="sourcePoint" />
            <mxPoint x="961" y="537" as="targetPoint" />
          </mxGeometry>
        </mxCell>
        <mxCell id="Jf6iWO9RtrincYPHwYvq-18" value="" style="endArrow=classic;html=1;rounded=0;strokeColor=#025D8C;strokeWidth=3;labelBackgroundColor=none;" parent="1" source="fyUGSk_a0tj3WXw86_DK-12" target="Jf6iWO9RtrincYPHwYvq-1" edge="1">
          <mxGeometry width="50" height="50" relative="1" as="geometry">
            <mxPoint x="809" y="450" as="sourcePoint" />
            <mxPoint x="832" y="531" as="targetPoint" />
          </mxGeometry>
        </mxCell>
        <mxCell id="Jf6iWO9RtrincYPHwYvq-19" value="Lifecycle Management" style="text;html=1;align=center;verticalAlign=middle;whiteSpace=wrap;rounded=0;fontColor=#025D8C;fontSize=15;fontStyle=1;labelBackgroundColor=none;" parent="1" vertex="1">
          <mxGeometry x="700" y="360" width="120" height="30" as="geometry" />
        </mxCell>
        <mxCell id="Jf6iWO9RtrincYPHwYvq-20" value="" style="sketch=0;html=1;aspect=fixed;strokeColor=none;shadow=0;fillColor=#025D8C;verticalAlign=top;labelPosition=center;verticalLabelPosition=bottom;shape=mxgraph.gcp2.arrow_cycle;labelBackgroundColor=none;" parent="1" vertex="1">
          <mxGeometry x="729.74" y="291.25" width="60.53" height="57.5" as="geometry" />
        </mxCell>
      </root>
    </mxGraphModel>
  </diagram>
  <diagram name="lifecycle" id="fwbVa8p9cr9I09ZGomDw">
    <mxGraphModel dx="1392" dy="1691" grid="1" gridSize="10" guides="1" tooltips="1" connect="1" arrows="1" fold="1" page="1" pageScale="1" pageWidth="1600" pageHeight="900" math="0" shadow="0">
      <root>
        <mxCell id="GlQ2ygr7nY4LxLOCn26k-0" />
        <mxCell id="GlQ2ygr7nY4LxLOCn26k-1" parent="GlQ2ygr7nY4LxLOCn26k-0" />
        <mxCell id="GlQ2ygr7nY4LxLOCn26k-3" value="" style="rounded=0;whiteSpace=wrap;html=1;fontColor=#025D8C;fontSize=16;strokeWidth=3;strokeColor=#025D8C;align=center;fillColor=none;dashed=1;dashPattern=1 1;labelBackgroundColor=none;" parent="GlQ2ygr7nY4LxLOCn26k-1" vertex="1">
          <mxGeometry x="630" y="-130" width="1060" height="520" as="geometry" />
        </mxCell>
        <mxCell id="hcnNorOnKdTu6u2Ffiuj-0" value="" style="rounded=0;whiteSpace=wrap;html=1;fillColor=#FFFFFF;strokeColor=#025D8C;glass=0;labelBackgroundColor=none;strokeWidth=3;" parent="GlQ2ygr7nY4LxLOCn26k-1" vertex="1">
          <mxGeometry x="650" y="-80" width="1020" height="450" as="geometry" />
        </mxCell>
        <mxCell id="Lw6L8_MGAWBz8Ffuk6XS-0" value="" style="rounded=0;whiteSpace=wrap;html=1;fillColor=none;dashed=1;dashPattern=1 1;strokeWidth=2;labelBackgroundColor=none;" parent="GlQ2ygr7nY4LxLOCn26k-1" vertex="1">
          <mxGeometry x="1530" y="160" width="120" height="180" as="geometry" />
        </mxCell>
        <mxCell id="GlQ2ygr7nY4LxLOCn26k-5" value="Organization 1" style="text;html=1;align=center;verticalAlign=middle;whiteSpace=wrap;rounded=0;fontColor=#025D8C;fontSize=15;fontStyle=1;labelBackgroundColor=none;" parent="GlQ2ygr7nY4LxLOCn26k-1" vertex="1">
          <mxGeometry x="690" y="-70" width="120" height="30" as="geometry" />
        </mxCell>
        <mxCell id="GlQ2ygr7nY4LxLOCn26k-6" value="Foreman+Katello" style="text;html=1;align=left;verticalAlign=middle;whiteSpace=wrap;rounded=0;fontColor=#025D8C;fontSize=18;fontStyle=1;labelBackgroundColor=none;" parent="GlQ2ygr7nY4LxLOCn26k-1" vertex="1">
          <mxGeometry x="670" y="-120" width="160" height="30" as="geometry" />
        </mxCell>
        <mxCell id="GlQ2ygr7nY4LxLOCn26k-15" value="" style="shape=actor;whiteSpace=wrap;html=1;strokeWidth=3;labelBackgroundColor=none;" parent="GlQ2ygr7nY4LxLOCn26k-1" vertex="1">
          <mxGeometry x="440" y="-70" width="40" height="60" as="geometry" />
        </mxCell>
        <mxCell id="GlQ2ygr7nY4LxLOCn26k-16" value="Operator" style="text;html=1;align=center;verticalAlign=middle;whiteSpace=wrap;rounded=0;fontColor=#025D8C;fontSize=15;fontStyle=1;labelBackgroundColor=none;" parent="GlQ2ygr7nY4LxLOCn26k-1" vertex="1">
          <mxGeometry x="400" y="5" width="120" height="30" as="geometry" />
        </mxCell>
        <mxCell id="GlQ2ygr7nY4LxLOCn26k-21" value="" style="endArrow=classic;html=1;rounded=0;strokeColor=#025D8C;strokeWidth=3;entryX=0.003;entryY=0.331;entryDx=0;entryDy=0;entryPerimeter=0;labelBackgroundColor=none;" parent="GlQ2ygr7nY4LxLOCn26k-1" target="GlQ2ygr7nY4LxLOCn26k-3" edge="1">
          <mxGeometry width="50" height="50" relative="1" as="geometry">
            <mxPoint x="400" y="40" as="sourcePoint" />
            <mxPoint x="581.0699999999999" y="-19.9999999999999" as="targetPoint" />
          </mxGeometry>
        </mxCell>
        <mxCell id="GlQ2ygr7nY4LxLOCn26k-23" value="Location 1" style="rounded=1;whiteSpace=wrap;html=1;fontColor=#025D8C;fontSize=16;strokeWidth=3;strokeColor=#025D8C;align=center;fillColor=none;labelBackgroundColor=none;" parent="GlQ2ygr7nY4LxLOCn26k-1" vertex="1">
          <mxGeometry x="905" y="800" width="100" height="40" as="geometry" />
        </mxCell>
        <mxCell id="GlQ2ygr7nY4LxLOCn26k-24" value="Dev" style="ellipse;whiteSpace=wrap;html=1;strokeWidth=3;strokeColor=#025D8C;fontSize=16;fontColor=#FFFFFF;fillColor=#025D8C;fontStyle=1" parent="GlQ2ygr7nY4LxLOCn26k-1" vertex="1">
          <mxGeometry x="925" y="520" width="60" height="60" as="geometry" />
        </mxCell>
        <mxCell id="GlQ2ygr7nY4LxLOCn26k-25" value="Location 2" style="rounded=1;whiteSpace=wrap;html=1;fontColor=#025D8C;fontSize=16;strokeWidth=3;strokeColor=#025D8C;align=center;fillColor=none;labelBackgroundColor=none;" parent="GlQ2ygr7nY4LxLOCn26k-1" vertex="1">
          <mxGeometry x="1045" y="800" width="100" height="40" as="geometry" />
        </mxCell>
        <mxCell id="GlQ2ygr7nY4LxLOCn26k-26" value="Location 3" style="rounded=1;whiteSpace=wrap;html=1;fontColor=#025D8C;fontSize=16;strokeWidth=3;strokeColor=#025D8C;align=center;fillColor=none;labelBackgroundColor=none;" parent="GlQ2ygr7nY4LxLOCn26k-1" vertex="1">
          <mxGeometry x="1185" y="800" width="100" height="40" as="geometry" />
        </mxCell>
        <mxCell id="GlQ2ygr7nY4LxLOCn26k-27" value="Location N" style="rounded=1;whiteSpace=wrap;html=1;fontColor=#025D8C;fontSize=16;strokeWidth=3;strokeColor=#025D8C;align=center;fillColor=none;labelBackgroundColor=none;" parent="GlQ2ygr7nY4LxLOCn26k-1" vertex="1">
          <mxGeometry x="1325" y="800" width="100" height="40" as="geometry" />
        </mxCell>
        <mxCell id="GlQ2ygr7nY4LxLOCn26k-28" value="QA" style="ellipse;whiteSpace=wrap;html=1;strokeWidth=3;strokeColor=#025D8C;fontSize=16;fontColor=#FFFFFF;fillColor=#025D8C;fontStyle=1" parent="GlQ2ygr7nY4LxLOCn26k-1" vertex="1">
          <mxGeometry x="1065" y="520" width="60" height="60" as="geometry" />
        </mxCell>
        <mxCell id="GlQ2ygr7nY4LxLOCn26k-34" value="Smart Proxy Servers" style="text;html=1;align=center;verticalAlign=middle;whiteSpace=wrap;rounded=0;fontColor=#025D8C;fontSize=15;fontStyle=1;labelBackgroundColor=none;" parent="GlQ2ygr7nY4LxLOCn26k-1" vertex="1">
          <mxGeometry x="630" y="580" width="160" height="30" as="geometry" />
        </mxCell>
        <mxCell id="GlQ2ygr7nY4LxLOCn26k-35" value="" style="endArrow=classic;html=1;rounded=0;strokeColor=#025D8C;strokeWidth=3;labelBackgroundColor=none;" parent="GlQ2ygr7nY4LxLOCn26k-1" source="GlQ2ygr7nY4LxLOCn26k-34" target="Gv6hh6W7-N_Oe9yaVwIU-8" edge="1">
          <mxGeometry width="50" height="50" relative="1" as="geometry">
            <mxPoint x="949" y="176" as="sourcePoint" />
            <mxPoint x="535" y="450" as="targetPoint" />
          </mxGeometry>
        </mxCell>
        <mxCell id="7wWBu63ugnCcXY526KHT-0" value="Lib" style="ellipse;whiteSpace=wrap;html=1;strokeWidth=3;strokeColor=#025D8C;fontSize=16;fontColor=#FFFFFF;fillColor=#025D8C;fontStyle=1" parent="GlQ2ygr7nY4LxLOCn26k-1" vertex="1">
          <mxGeometry x="820" y="-10" width="80" height="80" as="geometry" />
        </mxCell>
        <mxCell id="7wWBu63ugnCcXY526KHT-1" value="Dev" style="ellipse;whiteSpace=wrap;html=1;strokeWidth=3;strokeColor=#025D8C;fontSize=16;fontColor=#FFFFFF;fillColor=#025D8C;fontStyle=1" parent="GlQ2ygr7nY4LxLOCn26k-1" vertex="1">
          <mxGeometry x="1230" y="-10" width="80" height="80" as="geometry" />
        </mxCell>
        <mxCell id="7wWBu63ugnCcXY526KHT-2" value="QA" style="ellipse;whiteSpace=wrap;html=1;strokeWidth=3;strokeColor=#025D8C;fontSize=16;fontColor=#FFFFFF;fillColor=#025D8C;fontStyle=1" parent="GlQ2ygr7nY4LxLOCn26k-1" vertex="1">
          <mxGeometry x="1390" y="-10" width="80" height="80" as="geometry" />
        </mxCell>
        <mxCell id="7wWBu63ugnCcXY526KHT-3" value="Prod" style="ellipse;whiteSpace=wrap;html=1;strokeWidth=3;strokeColor=#025D8C;fontSize=16;fontColor=#FFFFFF;fillColor=#025D8C;fontStyle=1" parent="GlQ2ygr7nY4LxLOCn26k-1" vertex="1">
          <mxGeometry x="1550" y="-10" width="80" height="80" as="geometry" />
        </mxCell>
        <mxCell id="7wWBu63ugnCcXY526KHT-4" value="" style="endArrow=none;html=1;rounded=0;fontColor=#025D8C;strokeColor=#025D8C;strokeWidth=3;labelBackgroundColor=none;" parent="GlQ2ygr7nY4LxLOCn26k-1" source="7wWBu63ugnCcXY526KHT-2" target="7wWBu63ugnCcXY526KHT-3" edge="1">
          <mxGeometry width="50" height="50" relative="1" as="geometry">
            <mxPoint x="1320" y="400" as="sourcePoint" />
            <mxPoint x="1110" y="30" as="targetPoint" />
          </mxGeometry>
        </mxCell>
        <mxCell id="7wWBu63ugnCcXY526KHT-5" value="" style="endArrow=none;html=1;rounded=0;fontColor=#025D8C;strokeColor=#025D8C;strokeWidth=3;labelBackgroundColor=none;" parent="GlQ2ygr7nY4LxLOCn26k-1" source="7wWBu63ugnCcXY526KHT-1" target="7wWBu63ugnCcXY526KHT-2" edge="1">
          <mxGeometry width="50" height="50" relative="1" as="geometry">
            <mxPoint x="1320" y="400" as="sourcePoint" />
            <mxPoint x="1370" y="350" as="targetPoint" />
          </mxGeometry>
        </mxCell>
        <mxCell id="7wWBu63ugnCcXY526KHT-6" value="" style="endArrow=none;html=1;rounded=0;fontColor=#025D8C;strokeColor=#025D8C;strokeWidth=3;labelBackgroundColor=none;" parent="GlQ2ygr7nY4LxLOCn26k-1" source="7wWBu63ugnCcXY526KHT-0" target="7wWBu63ugnCcXY526KHT-1" edge="1">
          <mxGeometry width="50" height="50" relative="1" as="geometry">
            <mxPoint x="1320" y="400" as="sourcePoint" />
            <mxPoint x="1370" y="350" as="targetPoint" />
          </mxGeometry>
        </mxCell>
        <mxCell id="7wWBu63ugnCcXY526KHT-7" value="QA" style="ellipse;whiteSpace=wrap;html=1;strokeWidth=3;strokeColor=#025D8C;fontSize=16;fontColor=#FFFFFF;fillColor=#025D8C;fontStyle=1" parent="GlQ2ygr7nY4LxLOCn26k-1" vertex="1">
          <mxGeometry x="925" y="600" width="60" height="60" as="geometry" />
        </mxCell>
        <mxCell id="7wWBu63ugnCcXY526KHT-8" value="Prod" style="ellipse;whiteSpace=wrap;html=1;strokeWidth=3;strokeColor=#025D8C;fontSize=16;fontColor=#FFFFFF;fillColor=#025D8C;fontStyle=1" parent="GlQ2ygr7nY4LxLOCn26k-1" vertex="1">
          <mxGeometry x="1065" y="600" width="60" height="60" as="geometry" />
        </mxCell>
        <mxCell id="7wWBu63ugnCcXY526KHT-9" value="QA" style="ellipse;whiteSpace=wrap;html=1;strokeWidth=3;strokeColor=#025D8C;fontSize=16;fontColor=#FFFFFF;fillColor=#025D8C;fontStyle=1" parent="GlQ2ygr7nY4LxLOCn26k-1" vertex="1">
          <mxGeometry x="1205" y="600" width="60" height="60" as="geometry" />
        </mxCell>
        <mxCell id="7wWBu63ugnCcXY526KHT-10" value="Prod" style="ellipse;whiteSpace=wrap;html=1;strokeWidth=3;strokeColor=#025D8C;fontSize=16;fontColor=#FFFFFF;fillColor=#025D8C;fontStyle=1" parent="GlQ2ygr7nY4LxLOCn26k-1" vertex="1">
          <mxGeometry x="1345" y="600" width="60" height="60" as="geometry" />
        </mxCell>
        <mxCell id="qK2U7Malh7O84Xb8Zg7a-4" value="" style="endArrow=none;html=1;rounded=0;fontColor=#025D8C;strokeColor=#025D8C;strokeWidth=3;labelBackgroundColor=none;" parent="GlQ2ygr7nY4LxLOCn26k-1" source="7wWBu63ugnCcXY526KHT-8" target="GlQ2ygr7nY4LxLOCn26k-28" edge="1">
          <mxGeometry width="50" height="50" relative="1" as="geometry">
            <mxPoint x="965" y="710" as="sourcePoint" />
            <mxPoint x="965" y="670" as="targetPoint" />
          </mxGeometry>
        </mxCell>
        <mxCell id="qK2U7Malh7O84Xb8Zg7a-5" value="" style="endArrow=none;html=1;rounded=0;fontColor=#025D8C;strokeColor=#025D8C;strokeWidth=3;labelBackgroundColor=none;" parent="GlQ2ygr7nY4LxLOCn26k-1" source="7wWBu63ugnCcXY526KHT-7" target="GlQ2ygr7nY4LxLOCn26k-24" edge="1">
          <mxGeometry width="50" height="50" relative="1" as="geometry">
            <mxPoint x="1105" y="710" as="sourcePoint" />
            <mxPoint x="1105" y="670" as="targetPoint" />
          </mxGeometry>
        </mxCell>
        <mxCell id="Gv6hh6W7-N_Oe9yaVwIU-3" value="" style="endArrow=none;html=1;rounded=0;fontColor=#025D8C;strokeColor=#025D8C;strokeWidth=3;labelBackgroundColor=none;" parent="GlQ2ygr7nY4LxLOCn26k-1" target="GlQ2ygr7nY4LxLOCn26k-28" edge="1">
          <mxGeometry width="50" height="50" relative="1" as="geometry">
            <mxPoint x="1095" y="480" as="sourcePoint" />
            <mxPoint x="1175" y="450" as="targetPoint" />
          </mxGeometry>
        </mxCell>
        <mxCell id="Gv6hh6W7-N_Oe9yaVwIU-4" value="" style="endArrow=none;html=1;rounded=0;fontColor=#025D8C;strokeColor=#025D8C;strokeWidth=3;labelBackgroundColor=none;" parent="GlQ2ygr7nY4LxLOCn26k-1" target="GlQ2ygr7nY4LxLOCn26k-24" edge="1">
          <mxGeometry width="50" height="50" relative="1" as="geometry">
            <mxPoint x="955" y="480" as="sourcePoint" />
            <mxPoint x="1105" y="530" as="targetPoint" />
          </mxGeometry>
        </mxCell>
        <mxCell id="Gv6hh6W7-N_Oe9yaVwIU-5" value="" style="endArrow=none;html=1;rounded=0;fontColor=#025D8C;strokeColor=#025D8C;strokeWidth=3;labelBackgroundColor=none;" parent="GlQ2ygr7nY4LxLOCn26k-1" target="7wWBu63ugnCcXY526KHT-9" edge="1">
          <mxGeometry width="50" height="50" relative="1" as="geometry">
            <mxPoint x="1235" y="480" as="sourcePoint" />
            <mxPoint x="1105" y="530" as="targetPoint" />
          </mxGeometry>
        </mxCell>
        <mxCell id="Gv6hh6W7-N_Oe9yaVwIU-6" value="" style="endArrow=none;html=1;rounded=0;fontColor=#025D8C;strokeColor=#025D8C;strokeWidth=3;labelBackgroundColor=none;" parent="GlQ2ygr7nY4LxLOCn26k-1" target="7wWBu63ugnCcXY526KHT-10" edge="1">
          <mxGeometry width="50" height="50" relative="1" as="geometry">
            <mxPoint x="1375" y="480" as="sourcePoint" />
            <mxPoint x="1245" y="610" as="targetPoint" />
          </mxGeometry>
        </mxCell>
        <mxCell id="Gv6hh6W7-N_Oe9yaVwIU-7" value="" style="endArrow=none;html=1;rounded=0;fontColor=#025D8C;strokeColor=#025D8C;strokeWidth=3;labelBackgroundColor=none;" parent="GlQ2ygr7nY4LxLOCn26k-1" edge="1">
          <mxGeometry width="50" height="50" relative="1" as="geometry">
            <mxPoint x="1375" y="480" as="sourcePoint" />
            <mxPoint x="955" y="480" as="targetPoint" />
          </mxGeometry>
        </mxCell>
        <mxCell id="Gv6hh6W7-N_Oe9yaVwIU-8" value="1" style="ellipse;whiteSpace=wrap;html=1;strokeWidth=3;strokeColor=#025D8C;fontSize=16;fontColor=#025D8C;labelBackgroundColor=none;" parent="GlQ2ygr7nY4LxLOCn26k-1" vertex="1">
          <mxGeometry x="925" y="700" width="60" height="60" as="geometry" />
        </mxCell>
        <mxCell id="Gv6hh6W7-N_Oe9yaVwIU-9" value="2" style="ellipse;whiteSpace=wrap;html=1;strokeWidth=3;strokeColor=#025D8C;fontSize=16;fontColor=#025D8C;labelBackgroundColor=none;" parent="GlQ2ygr7nY4LxLOCn26k-1" vertex="1">
          <mxGeometry x="1065" y="700" width="60" height="60" as="geometry" />
        </mxCell>
        <mxCell id="Gv6hh6W7-N_Oe9yaVwIU-10" value="3" style="ellipse;whiteSpace=wrap;html=1;strokeWidth=3;strokeColor=#025D8C;fontSize=16;fontColor=#025D8C;labelBackgroundColor=none;" parent="GlQ2ygr7nY4LxLOCn26k-1" vertex="1">
          <mxGeometry x="1205" y="700" width="60" height="60" as="geometry" />
        </mxCell>
        <mxCell id="Gv6hh6W7-N_Oe9yaVwIU-11" value="4" style="ellipse;whiteSpace=wrap;html=1;strokeWidth=3;strokeColor=#025D8C;fontSize=16;fontColor=#025D8C;labelBackgroundColor=none;" parent="GlQ2ygr7nY4LxLOCn26k-1" vertex="1">
          <mxGeometry x="1345" y="700" width="60" height="60" as="geometry" />
        </mxCell>
        <mxCell id="Gv6hh6W7-N_Oe9yaVwIU-12" value="" style="endArrow=none;html=1;rounded=0;fontColor=#025D8C;strokeColor=#025D8C;strokeWidth=3;labelBackgroundColor=none;" parent="GlQ2ygr7nY4LxLOCn26k-1" source="Gv6hh6W7-N_Oe9yaVwIU-9" target="7wWBu63ugnCcXY526KHT-8" edge="1">
          <mxGeometry width="50" height="50" relative="1" as="geometry">
            <mxPoint x="965" y="810" as="sourcePoint" />
            <mxPoint x="1095" y="680" as="targetPoint" />
          </mxGeometry>
        </mxCell>
        <mxCell id="Gv6hh6W7-N_Oe9yaVwIU-13" value="" style="endArrow=none;html=1;rounded=0;fontColor=#025D8C;strokeColor=#025D8C;strokeWidth=3;labelBackgroundColor=none;" parent="GlQ2ygr7nY4LxLOCn26k-1" source="Gv6hh6W7-N_Oe9yaVwIU-8" target="7wWBu63ugnCcXY526KHT-7" edge="1">
          <mxGeometry width="50" height="50" relative="1" as="geometry">
            <mxPoint x="1105" y="810" as="sourcePoint" />
            <mxPoint x="955" y="680" as="targetPoint" />
          </mxGeometry>
        </mxCell>
        <mxCell id="Gv6hh6W7-N_Oe9yaVwIU-14" value="" style="endArrow=none;html=1;rounded=0;fontColor=#025D8C;strokeColor=#025D8C;strokeWidth=3;labelBackgroundColor=none;" parent="GlQ2ygr7nY4LxLOCn26k-1" source="Gv6hh6W7-N_Oe9yaVwIU-10" target="7wWBu63ugnCcXY526KHT-9" edge="1">
          <mxGeometry width="50" height="50" relative="1" as="geometry">
            <mxPoint x="1105" y="710" as="sourcePoint" />
            <mxPoint x="1105" y="670" as="targetPoint" />
          </mxGeometry>
        </mxCell>
        <mxCell id="Gv6hh6W7-N_Oe9yaVwIU-15" value="" style="endArrow=none;html=1;rounded=0;fontColor=#025D8C;strokeColor=#025D8C;strokeWidth=3;labelBackgroundColor=none;" parent="GlQ2ygr7nY4LxLOCn26k-1" source="Gv6hh6W7-N_Oe9yaVwIU-11" target="7wWBu63ugnCcXY526KHT-10" edge="1">
          <mxGeometry width="50" height="50" relative="1" as="geometry">
            <mxPoint x="1245" y="710" as="sourcePoint" />
            <mxPoint x="1245" y="670" as="targetPoint" />
          </mxGeometry>
        </mxCell>
        <mxCell id="Gv6hh6W7-N_Oe9yaVwIU-16" value="Network/Firewall" style="text;html=1;align=center;verticalAlign=middle;whiteSpace=wrap;rounded=0;fontColor=#025D8C;fontSize=15;fontStyle=1;labelBackgroundColor=none;" parent="GlQ2ygr7nY4LxLOCn26k-1" vertex="1">
          <mxGeometry x="790" y="470" width="150" height="30" as="geometry" />
        </mxCell>
        <mxCell id="Gv6hh6W7-N_Oe9yaVwIU-17" value="" style="strokeWidth=2;html=1;shape=mxgraph.flowchart.multi-document;whiteSpace=wrap;labelBackgroundColor=none;" parent="GlQ2ygr7nY4LxLOCn26k-1" vertex="1">
          <mxGeometry x="1550" y="220" width="80" height="40" as="geometry" />
        </mxCell>
        <mxCell id="Gv6hh6W7-N_Oe9yaVwIU-21" value="Version 1" style="text;html=1;align=center;verticalAlign=middle;whiteSpace=wrap;rounded=0;fontColor=#025D8C;fontSize=15;fontStyle=1;labelBackgroundColor=none;" parent="GlQ2ygr7nY4LxLOCn26k-1" vertex="1">
          <mxGeometry x="1550" y="170" width="80" height="30" as="geometry" />
        </mxCell>
        <mxCell id="Lw6L8_MGAWBz8Ffuk6XS-1" value="Composite Content View 2" style="text;html=1;align=center;verticalAlign=middle;whiteSpace=wrap;rounded=0;fontColor=#025D8C;fontSize=13;fontStyle=1;labelBackgroundColor=none;" parent="GlQ2ygr7nY4LxLOCn26k-1" vertex="1">
          <mxGeometry x="1540" y="290" width="100" height="30" as="geometry" />
        </mxCell>
        <mxCell id="Lw6L8_MGAWBz8Ffuk6XS-6" value="" style="rounded=0;whiteSpace=wrap;html=1;fillColor=none;dashed=1;dashPattern=1 1;strokeWidth=2;labelBackgroundColor=none;" parent="GlQ2ygr7nY4LxLOCn26k-1" vertex="1">
          <mxGeometry x="1370" y="160" width="120" height="180" as="geometry" />
        </mxCell>
        <mxCell id="Lw6L8_MGAWBz8Ffuk6XS-7" value="" style="strokeWidth=2;html=1;shape=mxgraph.flowchart.multi-document;whiteSpace=wrap;labelBackgroundColor=none;" parent="GlQ2ygr7nY4LxLOCn26k-1" vertex="1">
          <mxGeometry x="1390" y="220" width="80" height="40" as="geometry" />
        </mxCell>
        <mxCell id="Lw6L8_MGAWBz8Ffuk6XS-8" value="Version 2" style="text;html=1;align=center;verticalAlign=middle;whiteSpace=wrap;rounded=0;fontColor=#025D8C;fontSize=15;fontStyle=1;labelBackgroundColor=none;" parent="GlQ2ygr7nY4LxLOCn26k-1" vertex="1">
          <mxGeometry x="1390" y="170" width="80" height="30" as="geometry" />
        </mxCell>
        <mxCell id="Lw6L8_MGAWBz8Ffuk6XS-9" value="Composite Content View 2" style="text;html=1;align=center;verticalAlign=middle;whiteSpace=wrap;rounded=0;fontColor=#025D8C;fontSize=13;fontStyle=1;labelBackgroundColor=none;" parent="GlQ2ygr7nY4LxLOCn26k-1" vertex="1">
          <mxGeometry x="1380" y="290" width="100" height="30" as="geometry" />
        </mxCell>
        <mxCell id="Lw6L8_MGAWBz8Ffuk6XS-10" value="" style="rounded=0;whiteSpace=wrap;html=1;fillColor=none;dashed=1;dashPattern=1 1;strokeWidth=2;labelBackgroundColor=none;" parent="GlQ2ygr7nY4LxLOCn26k-1" vertex="1">
          <mxGeometry x="1210" y="160" width="120" height="180" as="geometry" />
        </mxCell>
        <mxCell id="Lw6L8_MGAWBz8Ffuk6XS-11" value="" style="strokeWidth=2;html=1;shape=mxgraph.flowchart.multi-document;whiteSpace=wrap;labelBackgroundColor=none;" parent="GlQ2ygr7nY4LxLOCn26k-1" vertex="1">
          <mxGeometry x="1230" y="220" width="80" height="40" as="geometry" />
        </mxCell>
        <mxCell id="Lw6L8_MGAWBz8Ffuk6XS-12" value="Version N" style="text;html=1;align=center;verticalAlign=middle;whiteSpace=wrap;rounded=0;fontColor=#025D8C;fontSize=15;fontStyle=1;labelBackgroundColor=none;" parent="GlQ2ygr7nY4LxLOCn26k-1" vertex="1">
          <mxGeometry x="1230" y="170" width="80" height="30" as="geometry" />
        </mxCell>
        <mxCell id="Lw6L8_MGAWBz8Ffuk6XS-13" value="Composite Content View 2" style="text;html=1;align=center;verticalAlign=middle;whiteSpace=wrap;rounded=0;fontColor=#025D8C;fontSize=13;fontStyle=1;labelBackgroundColor=none;" parent="GlQ2ygr7nY4LxLOCn26k-1" vertex="1">
          <mxGeometry x="1220" y="290" width="100" height="30" as="geometry" />
        </mxCell>
        <mxCell id="Lw6L8_MGAWBz8Ffuk6XS-14" value="" style="rounded=0;whiteSpace=wrap;html=1;fillColor=none;dashed=1;dashPattern=1 1;strokeWidth=2;labelBackgroundColor=none;" parent="GlQ2ygr7nY4LxLOCn26k-1" vertex="1">
          <mxGeometry x="670" y="160" width="120" height="180" as="geometry" />
        </mxCell>
        <mxCell id="Lw6L8_MGAWBz8Ffuk6XS-15" value="" style="strokeWidth=2;html=1;shape=mxgraph.flowchart.multi-document;whiteSpace=wrap;labelBackgroundColor=none;" parent="GlQ2ygr7nY4LxLOCn26k-1" vertex="1">
          <mxGeometry x="690" y="220" width="80" height="40" as="geometry" />
        </mxCell>
        <mxCell id="Lw6L8_MGAWBz8Ffuk6XS-16" value="Version N" style="text;html=1;align=center;verticalAlign=middle;whiteSpace=wrap;rounded=0;fontColor=#025D8C;fontSize=15;fontStyle=1;labelBackgroundColor=none;" parent="GlQ2ygr7nY4LxLOCn26k-1" vertex="1">
          <mxGeometry x="690" y="170" width="80" height="30" as="geometry" />
        </mxCell>
        <mxCell id="Lw6L8_MGAWBz8Ffuk6XS-17" value="Content View 1" style="text;html=1;align=center;verticalAlign=middle;whiteSpace=wrap;rounded=0;fontColor=#025D8C;fontSize=13;fontStyle=1;labelBackgroundColor=none;" parent="GlQ2ygr7nY4LxLOCn26k-1" vertex="1">
          <mxGeometry x="680" y="290" width="100" height="30" as="geometry" />
        </mxCell>
        <mxCell id="Lw6L8_MGAWBz8Ffuk6XS-18" value="" style="rounded=0;whiteSpace=wrap;html=1;fillColor=none;dashed=1;dashPattern=1 1;strokeWidth=2;labelBackgroundColor=none;" parent="GlQ2ygr7nY4LxLOCn26k-1" vertex="1">
          <mxGeometry x="910" y="160" width="120" height="180" as="geometry" />
        </mxCell>
        <mxCell id="Lw6L8_MGAWBz8Ffuk6XS-19" value="" style="strokeWidth=2;html=1;shape=mxgraph.flowchart.multi-document;whiteSpace=wrap;labelBackgroundColor=none;" parent="GlQ2ygr7nY4LxLOCn26k-1" vertex="1">
          <mxGeometry x="930" y="220" width="80" height="40" as="geometry" />
        </mxCell>
        <mxCell id="Lw6L8_MGAWBz8Ffuk6XS-20" value="Version N" style="text;html=1;align=center;verticalAlign=middle;whiteSpace=wrap;rounded=0;fontColor=#025D8C;fontSize=15;fontStyle=1;labelBackgroundColor=none;" parent="GlQ2ygr7nY4LxLOCn26k-1" vertex="1">
          <mxGeometry x="930" y="170" width="80" height="30" as="geometry" />
        </mxCell>
        <mxCell id="Lw6L8_MGAWBz8Ffuk6XS-21" value="Composite Content View 2" style="text;html=1;align=center;verticalAlign=middle;whiteSpace=wrap;rounded=0;fontColor=#025D8C;fontSize=13;fontStyle=1;labelBackgroundColor=none;" parent="GlQ2ygr7nY4LxLOCn26k-1" vertex="1">
          <mxGeometry x="920" y="290" width="100" height="30" as="geometry" />
        </mxCell>
        <mxCell id="Lw6L8_MGAWBz8Ffuk6XS-22" value="" style="endArrow=classic;html=1;rounded=0;strokeColor=#025D8C;strokeWidth=3;entryX=0.5;entryY=0;entryDx=0;entryDy=0;dashed=1;dashPattern=1 1;labelBackgroundColor=none;" parent="GlQ2ygr7nY4LxLOCn26k-1" source="7wWBu63ugnCcXY526KHT-3" target="Lw6L8_MGAWBz8Ffuk6XS-0" edge="1">
          <mxGeometry width="50" height="50" relative="1" as="geometry">
            <mxPoint x="920" y="-180" as="sourcePoint" />
            <mxPoint x="1121" y="-200" as="targetPoint" />
          </mxGeometry>
        </mxCell>
        <mxCell id="Lw6L8_MGAWBz8Ffuk6XS-23" value="" style="endArrow=classic;html=1;rounded=0;strokeColor=#025D8C;strokeWidth=3;entryX=0.5;entryY=0;entryDx=0;entryDy=0;dashed=1;dashPattern=1 1;labelBackgroundColor=none;" parent="GlQ2ygr7nY4LxLOCn26k-1" source="7wWBu63ugnCcXY526KHT-2" target="Lw6L8_MGAWBz8Ffuk6XS-6" edge="1">
          <mxGeometry width="50" height="50" relative="1" as="geometry">
            <mxPoint x="930" y="-170" as="sourcePoint" />
            <mxPoint x="1131" y="-190" as="targetPoint" />
          </mxGeometry>
        </mxCell>
        <mxCell id="Lw6L8_MGAWBz8Ffuk6XS-24" value="" style="endArrow=classic;html=1;rounded=0;strokeColor=#025D8C;strokeWidth=3;entryX=0.5;entryY=0;entryDx=0;entryDy=0;dashed=1;dashPattern=1 1;labelBackgroundColor=none;" parent="GlQ2ygr7nY4LxLOCn26k-1" source="7wWBu63ugnCcXY526KHT-1" target="Lw6L8_MGAWBz8Ffuk6XS-10" edge="1">
          <mxGeometry width="50" height="50" relative="1" as="geometry">
            <mxPoint x="940" y="-160" as="sourcePoint" />
            <mxPoint x="1141" y="-180" as="targetPoint" />
          </mxGeometry>
        </mxCell>
        <mxCell id="Lw6L8_MGAWBz8Ffuk6XS-26" value="" style="endArrow=none;html=1;rounded=0;strokeWidth=2;dashed=1;dashPattern=1 1;labelBackgroundColor=none;" parent="GlQ2ygr7nY4LxLOCn26k-1" edge="1">
          <mxGeometry width="50" height="50" relative="1" as="geometry">
            <mxPoint x="799" y="150" as="sourcePoint" />
            <mxPoint x="800" y="330" as="targetPoint" />
          </mxGeometry>
        </mxCell>
        <mxCell id="Lw6L8_MGAWBz8Ffuk6XS-27" value="" style="endArrow=none;html=1;rounded=0;strokeWidth=2;dashed=1;dashPattern=1 1;labelBackgroundColor=none;" parent="GlQ2ygr7nY4LxLOCn26k-1" edge="1">
          <mxGeometry width="50" height="50" relative="1" as="geometry">
            <mxPoint x="800" y="150" as="sourcePoint" />
            <mxPoint x="680" y="150" as="targetPoint" />
          </mxGeometry>
        </mxCell>
        <mxCell id="Lw6L8_MGAWBz8Ffuk6XS-29" value="" style="endArrow=none;html=1;rounded=0;strokeWidth=2;dashed=1;dashPattern=1 1;labelBackgroundColor=none;" parent="GlQ2ygr7nY4LxLOCn26k-1" edge="1">
          <mxGeometry width="50" height="50" relative="1" as="geometry">
            <mxPoint x="809" y="140" as="sourcePoint" />
            <mxPoint x="810" y="320" as="targetPoint" />
          </mxGeometry>
        </mxCell>
        <mxCell id="Lw6L8_MGAWBz8Ffuk6XS-30" value="" style="endArrow=none;html=1;rounded=0;strokeWidth=2;dashed=1;dashPattern=1 1;labelBackgroundColor=none;" parent="GlQ2ygr7nY4LxLOCn26k-1" edge="1">
          <mxGeometry width="50" height="50" relative="1" as="geometry">
            <mxPoint x="810" y="140" as="sourcePoint" />
            <mxPoint x="690" y="140" as="targetPoint" />
          </mxGeometry>
        </mxCell>
        <mxCell id="Lw6L8_MGAWBz8Ffuk6XS-31" value="" style="endArrow=none;html=1;rounded=0;strokeWidth=2;dashed=1;dashPattern=1 1;labelBackgroundColor=none;" parent="GlQ2ygr7nY4LxLOCn26k-1" edge="1">
          <mxGeometry width="50" height="50" relative="1" as="geometry">
            <mxPoint x="1039" y="150" as="sourcePoint" />
            <mxPoint x="1040" y="330" as="targetPoint" />
          </mxGeometry>
        </mxCell>
        <mxCell id="Lw6L8_MGAWBz8Ffuk6XS-32" value="" style="endArrow=none;html=1;rounded=0;strokeWidth=2;dashed=1;dashPattern=1 1;labelBackgroundColor=none;" parent="GlQ2ygr7nY4LxLOCn26k-1" edge="1">
          <mxGeometry width="50" height="50" relative="1" as="geometry">
            <mxPoint x="1040" y="150" as="sourcePoint" />
            <mxPoint x="920" y="150" as="targetPoint" />
          </mxGeometry>
        </mxCell>
        <mxCell id="Lw6L8_MGAWBz8Ffuk6XS-33" value="" style="endArrow=none;html=1;rounded=0;strokeWidth=2;dashed=1;dashPattern=1 1;labelBackgroundColor=none;" parent="GlQ2ygr7nY4LxLOCn26k-1" edge="1">
          <mxGeometry width="50" height="50" relative="1" as="geometry">
            <mxPoint x="1049" y="140" as="sourcePoint" />
            <mxPoint x="1050" y="320" as="targetPoint" />
          </mxGeometry>
        </mxCell>
        <mxCell id="Lw6L8_MGAWBz8Ffuk6XS-34" value="" style="endArrow=none;html=1;rounded=0;strokeWidth=2;dashed=1;dashPattern=1 1;labelBackgroundColor=none;" parent="GlQ2ygr7nY4LxLOCn26k-1" edge="1">
          <mxGeometry width="50" height="50" relative="1" as="geometry">
            <mxPoint x="1050" y="140" as="sourcePoint" />
            <mxPoint x="930" y="140" as="targetPoint" />
          </mxGeometry>
        </mxCell>
        <mxCell id="Lw6L8_MGAWBz8Ffuk6XS-39" value="" style="endArrow=classic;html=1;rounded=0;strokeColor=#025D8C;strokeWidth=3;dashed=1;dashPattern=1 1;labelBackgroundColor=none;" parent="GlQ2ygr7nY4LxLOCn26k-1" edge="1">
          <mxGeometry width="50" height="50" relative="1" as="geometry">
            <mxPoint x="860" y="70" as="sourcePoint" />
            <mxPoint x="820" y="210" as="targetPoint" />
            <Array as="points">
              <mxPoint x="860" y="210" />
            </Array>
          </mxGeometry>
        </mxCell>
        <mxCell id="Lw6L8_MGAWBz8Ffuk6XS-40" value="" style="endArrow=classic;html=1;rounded=0;strokeColor=#025D8C;strokeWidth=3;dashed=1;dashPattern=1 1;labelBackgroundColor=none;" parent="GlQ2ygr7nY4LxLOCn26k-1" edge="1">
          <mxGeometry width="50" height="50" relative="1" as="geometry">
            <mxPoint x="860" y="70" as="sourcePoint" />
            <mxPoint x="900" y="210" as="targetPoint" />
            <Array as="points">
              <mxPoint x="860" y="210" />
            </Array>
          </mxGeometry>
        </mxCell>
        <mxCell id="Lw6L8_MGAWBz8Ffuk6XS-41" value="" style="endArrow=none;html=1;rounded=0;fontColor=#025D8C;strokeColor=#025D8C;strokeWidth=3;labelBackgroundColor=none;" parent="GlQ2ygr7nY4LxLOCn26k-1" source="GlQ2ygr7nY4LxLOCn26k-3" edge="1">
          <mxGeometry width="50" height="50" relative="1" as="geometry">
            <mxPoint x="1269.5" y="420" as="sourcePoint" />
            <mxPoint x="1160" y="480" as="targetPoint" />
          </mxGeometry>
        </mxCell>
      </root>
    </mxGraphModel>
  </diagram>
</mxfile>
